<svg width="55" height="65" viewBox="0 0 55 65" fill="none" xmlns="http://www.w3.org/2000/svg" opacity="0.5">
<path d="M41.0819 16.3865L34.6214 18.9315C42.743 21.8053 48.5623 29.5513 48.5623 38.6574C48.5623 50.2121 39.1958 59.5786 27.6411 59.5786C16.0865 59.5786 6.71993 50.2121 6.71993 38.6574C6.71993 29.5658 12.5196 21.8302 20.6204 18.9449L14.1713 16.4041C6.74068 20.9473 1.7804 29.1353 1.7804 38.4832C1.7804 52.7654 13.3579 64.3428 27.6401 64.3428C41.9223 64.3428 53.4998 52.7654 53.4998 38.4832C53.5018 29.1239 48.5291 20.9255 41.0819 16.3865Z" fill="#00241E"/>
<path d="M27.3776 24.3192C17.6998 24.3192 9.85315 29.0025 9.85315 34.7793C9.85315 40.5561 17.6987 45.2394 27.3776 45.2394C37.0564 45.2394 44.902 40.5561 44.902 34.7793C44.902 29.0025 37.0564 24.3192 27.3776 24.3192ZM27.3776 43.2422C19.5476 43.2422 13.2001 39.4532 13.2001 34.7793C13.2001 30.1054 19.5476 26.3164 27.3776 26.3164C35.2076 26.3164 41.555 30.1054 41.555 34.7793C41.555 39.4532 35.2076 43.2422 27.3776 43.2422Z" fill="#00241E"/>
<path d="M30.0564 22.8708H25.123V62.1247H30.0564V22.8708Z" fill="#00241E"/>
<path d="M27.5902 9.25061C34.1919 9.25061 40.0921 10.8401 44.0045 13.3342L54.4698 9.30041L27.5902 0.812622L0.710693 9.30145L11.177 13.3352C15.0894 10.8401 20.9876 9.25061 27.5902 9.25061Z" fill="#00241E"/>
<path d="M27.5902 11.4076C22.3425 11.4076 17.6437 12.6495 14.4783 14.6072L27.5902 19.6609L40.7011 14.6072C37.5367 12.6495 32.8379 11.4076 27.5902 11.4076Z" fill="#00241E"/>
<path d="M52.9664 9.56189C52.6967 9.66356 52.5888 9.93539 52.6531 10.4998C52.6925 10.8411 52.6635 11.1897 52.6666 11.5352C52.6759 12.5779 52.6759 12.5779 52.125 13.3882C53.4094 13.9733 53.5391 14.3448 52.9789 15.6458C52.9021 15.8242 52.8979 16.0525 52.9197 16.2507C53.0038 17.0194 53.1117 17.7851 53.2196 18.6141C52.2173 18.6016 51.3956 18.0445 50.5231 17.7706C50.5553 17.1958 50.6248 16.6957 50.5968 16.2029C50.5781 15.8626 50.4723 15.5068 50.3208 15.1986C50.0324 14.6124 50.272 13.9007 50.8821 13.687C51.0751 13.6196 51.2691 13.5552 51.3479 13.5283C51.1715 12.4493 51.0035 11.4159 50.8167 10.2664" fill="#00241E"/>
</svg>
