<?xml version="1.0" encoding="utf-8"?>
<!-- Generator: Adobe Illustrator 24.3.0, SVG Export Plug-In . SVG Version: 6.00 Build 0)  -->
<svg version="1.1" id="Calque_1" xmlns="http://www.w3.org/2000/svg" xmlns:xlink="http://www.w3.org/1999/xlink" x="0px" y="0px"
	 viewBox="0 0 800 800" style="enable-background:new 0 0 800 800;" xml:space="preserve">
<path d="M530.91,244.69l-62.27,24.53c78.28,27.7,134.37,102.36,134.37,190.13c0,111.37-90.28,201.65-201.65,201.65
	s-201.65-90.28-201.65-201.65c0-87.63,55.9-162.19,133.98-190l-62.16-24.49c-71.62,43.79-119.43,122.71-119.43,212.81
	c0,137.66,111.59,249.25,249.25,249.25s249.25-111.59,249.25-249.25C650.62,367.46,602.69,288.44,530.91,244.69z"/>
<path d="M398.82,321.15c-93.28,0-168.91,45.14-168.91,100.82c0,55.68,75.62,100.82,168.91,100.82s168.91-45.14,168.91-100.82
	C567.73,366.29,492.11,321.15,398.82,321.15z M398.82,503.54c-75.47,0-136.65-36.52-136.65-81.57c0-45.05,61.18-81.57,136.65-81.57
	s136.65,36.52,136.65,81.57C535.47,467.02,474.29,503.54,398.82,503.54z"/>
<rect x="377.09" y="307.19" width="47.55" height="378.35"/>
<g>
	<path d="M400.87,175.91c63.63,0,120.5,15.32,158.21,39.36l100.87-38.88L400.87,94.58l-259.08,81.82l100.88,38.88
		C280.38,191.23,337.23,175.91,400.87,175.91z"/>
	<path d="M400.87,196.7c-50.58,0-95.87,11.97-126.38,30.84l126.38,48.71l126.37-48.71C496.74,208.67,451.45,196.7,400.87,196.7z"/>
</g>
<path d="M645.46,178.91L645.46,178.91c-2.6,0.98-3.64,3.6-3.02,9.04c0.38,3.29,0.1,6.65,0.13,9.98c0.09,10.05,0.09,10.05-5.22,17.86
	c12.38,5.64,13.63,9.22,8.23,21.76c-0.74,1.72-0.78,3.92-0.57,5.83c0.81,7.41,1.85,14.79,2.89,22.78
	c-9.66-0.12-17.58-5.49-25.99-8.13c0.31-5.54,0.98-10.36,0.71-15.11c-0.18-3.28-1.2-6.71-2.66-9.68
	c-2.78-5.65-0.47-12.51,5.41-14.57c1.86-0.65,3.73-1.27,4.49-1.53c-1.7-10.4-3.32-20.36-5.12-31.44c0.25,1.54,0,0,0,0"/>
</svg>
