<svg width="410" height="367" viewBox="0 0 410 367" fill="none" xmlns="http://www.w3.org/2000/svg">
<path fill-rule="evenodd" clip-rule="evenodd" d="M369.911 228.163C372.637 235.565 370.599 243.629 364.813 248.243L274.462 320.262L200.547 119.584L199.416 116.515L280.508 51.8732C289.778 44.4736 303.977 49.1543 308.363 61.0629L369.911 228.163ZM167.594 130.475L241.51 331.152L123.472 328.006C115.912 327.802 109.021 322.689 106.294 315.288L44.7469 148.187C40.3606 136.279 48.4041 124.247 60.5209 124.579L166.464 127.405L167.594 130.475ZM276.377 7.48973L176.653 88.2818C173.606 90.7472 169.75 92.0213 165.746 91.8865L34.6082 87.3938C10.255 86.5563 -6.02448 110.699 2.77989 134.603L77.7482 338.14C83.2263 353.013 97.1101 363.26 112.254 363.582L267.263 366.952C271.137 367.033 274.828 365.813 277.808 363.467L396.96 269.488C408.606 260.311 412.747 244.107 407.269 229.234L332.3 25.697C323.496 1.79333 294.895 -7.51645 276.377 7.48973Z" fill="url(#paint0_linear_227_10)"/>
<defs>
<linearGradient id="paint0_linear_227_10" x1="31.2685" y1="206.111" x2="395.849" y2="192.103" gradientUnits="userSpaceOnUse">
<stop stop-color="#D5D52C"/>
<stop offset="1" stop-color="#D5D52C" stop-opacity="0"/>
</linearGradient>
</defs>
</svg>
