<svg width="376" height="356" viewBox="0 0 376 356" fill="none" xmlns="http://www.w3.org/2000/svg">
<path d="M283.215 0.652695L53.9437 43.5654C51.3383 44.0531 49.107 45.819 48.0886 48.3018L0.899878 156.37C-0.4526 159.59 0.449886 163.331 3.08695 165.534L224.404 353.863C228.25 357.121 234.112 356.024 236.519 351.596L374.742 95.9714C376.391 92.8986 375.892 89.1493 373.466 86.637L290.452 2.93863C288.54 1.00447 285.886 0.152859 283.215 0.652695ZM276.496 34.2699L329.43 89.0816L284.878 97.4203L239.5 41.1945L276.496 34.2699ZM144.86 58.9082L203.937 47.8508L249.315 104.077L122.955 127.727L144.86 58.9082ZM72.3663 72.4769L109.362 65.5523L87.3916 134.384L42.8399 142.722L72.3663 72.4769ZM61.9138 171.512L95.3927 165.246L159.385 261.134L61.9138 171.512ZM128.937 158.967L255.036 135.365L221.647 305.637L128.937 158.967ZM263.599 241.628L288.515 129.099L321.994 122.833L263.599 241.628Z" fill="url(#paint0_linear_231_84)"/>
<defs>
<linearGradient id="paint0_linear_231_84" x1="394.104" y1="189.729" x2="8.7151" y2="224.198" gradientUnits="userSpaceOnUse">
<stop stop-color="#D5D52C"/>
<stop offset="1" stop-color="#D5D52C" stop-opacity="0"/>
</linearGradient>
</defs>
</svg>
