<svg width="549" height="667" viewBox="0 0 549 667" fill="none" xmlns="http://www.w3.org/2000/svg">
<path fill-rule="evenodd" clip-rule="evenodd" d="M109.387 0C104.784 0 101.053 3.73096 101.053 8.33333V55.5234H8.33333C3.73096 55.5234 0 59.2544 0 63.8568V227.467C0 232.069 3.73096 235.8 8.33333 235.8H55.525V282.99C55.525 287.592 59.2559 291.323 63.8583 291.323H227.47C232.072 291.323 235.803 287.592 235.803 282.99V227.467C235.803 222.864 232.072 219.133 227.47 219.133H72.1917V127.715H109.387C113.989 127.715 117.72 123.984 117.72 119.382V72.19H164.91C169.512 72.19 173.243 68.459 173.243 63.8567V8.33333C173.243 3.73096 169.512 0 164.91 0H109.387ZM117.72 55.5233V16.6667H156.577V55.5233H117.72ZM484.728 125.113C480.126 125.113 476.395 128.844 476.395 133.447V180.637H367.948V126.413C367.948 121.811 364.217 118.08 359.615 118.08H196.005C191.403 118.08 187.672 121.811 187.672 126.413V181.938C187.672 186.541 191.403 190.272 196.005 190.272H295.758V227.467C295.758 232.069 299.489 235.8 304.092 235.8H375.342V290.025C375.342 294.627 379.073 298.358 383.675 298.358H484.728C489.331 298.358 493.062 294.627 493.062 290.025V197.303H540.252C544.854 197.303 548.585 193.572 548.585 188.97V133.447C548.585 128.844 544.854 125.113 540.252 125.113H484.728ZM493.062 180.637V141.78H531.918V180.637H493.062ZM117.72 594.477V547.285C117.72 542.683 113.989 538.952 109.387 538.952H72.1917V447.533H227.47C232.072 447.533 235.803 443.802 235.803 439.2V383.675C235.803 379.073 232.072 375.342 227.47 375.342H63.8583C59.2559 375.342 55.525 379.073 55.525 383.675V430.867H8.33333C3.73096 430.867 0 434.598 0 439.2V602.81C0 607.412 3.73096 611.143 8.33333 611.143H101.053V658.333C101.053 662.936 104.784 666.667 109.387 666.667H164.91C169.512 666.667 173.243 662.936 173.243 658.333V602.81C173.243 598.208 169.512 594.477 164.91 594.477H117.72ZM117.72 611.143V650H156.577V611.143H117.72ZM493.062 376.641V469.362H540.252C544.854 469.362 548.585 473.093 548.585 477.695V533.218C548.585 537.821 544.854 541.552 540.252 541.552H484.728C480.126 541.552 476.395 537.821 476.395 533.218V486.028H367.948V540.251C367.948 544.854 364.217 548.585 359.615 548.585H196.005C191.403 548.585 187.672 544.854 187.672 540.251V501.751C187.672 497.149 191.403 493.418 196.005 493.418H295.758V422.166C295.758 417.564 299.489 413.833 304.092 413.833H375.342V376.641C375.342 372.039 379.073 368.308 383.675 368.308H484.728C489.331 368.308 493.062 372.039 493.062 376.641ZM493.062 524.885V486.029H531.918V524.885H493.062ZM16.6667 72.1901V219.133H55.525V119.382C55.525 114.779 59.256 111.048 63.8583 111.048H101.053V72.1901H16.6667ZM72.1916 274.657V235.8H219.137V274.657H72.1916ZM204.338 134.747V173.605H304.092C308.694 173.605 312.425 177.336 312.425 181.938V219.133H383.675C388.277 219.133 392.008 222.864 392.008 227.467V281.692H476.395V197.303H359.615C355.013 197.303 351.282 193.572 351.282 188.97V134.747H204.338ZM72.1916 430.867V392.008H219.137V430.867H72.1916ZM392.008 384.975V422.166C392.008 426.769 388.277 430.5 383.675 430.5H312.425V501.751C312.425 506.354 308.694 510.085 304.092 510.085H204.338V531.918H351.282V477.695C351.282 473.092 355.013 469.361 359.615 469.361H476.395V384.975H392.008ZM16.6667 594.477V447.533H55.525V547.285C55.525 551.887 59.256 555.618 63.8583 555.618H101.053V594.477H16.6667Z" fill="url(#paint0_linear_231_70)"/>
<defs>
<linearGradient id="paint0_linear_231_70" x1="0" y1="333.333" x2="548.585" y2="333.333" gradientUnits="userSpaceOnUse">
<stop stop-color="#D5D52C"/>
<stop offset="1" stop-color="#D5D52C" stop-opacity="0"/>
</linearGradient>
</defs>
</svg>
