<svg width="507" height="499" viewBox="0 0 507 499" fill="none" xmlns="http://www.w3.org/2000/svg">
<path d="M399.175 113.984C399.912 115.463 400.012 116.859 399.474 118.17C398.936 119.481 397.951 120.494 396.519 121.208C395.564 121.684 394.61 121.921 393.656 121.92C392.702 121.919 391.838 121.68 391.063 121.202C390.276 120.7 389.639 119.96 389.151 118.981C388.771 118.218 388.587 117.311 388.6 116.262C388.613 115.212 388.996 114.157 389.748 113.097C388.436 113.036 387.364 112.706 386.529 112.109C385.683 111.488 385.07 110.796 384.689 110.032C383.951 108.553 383.864 107.151 384.426 105.828C384.964 104.517 385.937 103.51 387.345 102.808C388.299 102.332 389.254 102.095 390.208 102.096C391.162 102.097 392.032 102.348 392.819 102.85C393.593 103.328 394.224 104.056 394.712 105.034C395.093 105.798 395.277 106.705 395.264 107.754C395.215 108.792 394.832 109.847 394.115 110.919C395.391 110.968 396.464 111.297 397.334 111.907C398.18 112.528 398.794 113.22 399.175 113.984ZM397.098 114.929C396.908 114.548 396.64 114.19 396.295 113.855C395.913 113.509 395.407 113.24 394.775 113.049C394.131 112.833 393.308 112.767 392.307 112.849C391.638 113.6 391.208 114.291 391.016 114.923C390.789 115.543 390.711 116.103 390.782 116.604C390.841 117.081 390.966 117.511 391.156 117.892C391.573 118.728 392.18 119.229 392.979 119.397C393.778 119.565 394.595 119.441 395.43 119.024C396.265 118.608 396.856 118.03 397.203 117.291C397.55 116.552 397.515 115.765 397.098 114.929ZM392.708 106.123C392.303 105.312 391.701 104.822 390.903 104.655C390.068 104.475 389.245 104.587 388.434 104.992C387.598 105.408 387.013 105.998 386.678 106.761C386.332 107.5 386.361 108.275 386.765 109.086C386.956 109.468 387.23 109.838 387.587 110.196C387.932 110.531 388.421 110.794 389.053 110.985C389.661 111.188 390.472 111.261 391.486 111.202C392.142 110.428 392.584 109.731 392.812 109.111C393.039 108.491 393.135 107.937 393.1 107.448C393.029 106.947 392.898 106.505 392.708 106.123Z" fill="url(#paint0_linear_187_1198)"/>
<path d="M397.769 196.865L399.185 194.977L402.193 197.233L409.488 187.504L410.48 188.248L405.328 187.785L405.56 185.409L411.44 185.968L413.104 187.216L404.369 198.865L406.929 200.784L405.513 202.673L397.769 196.865ZM396.922 211.529L395.962 209.209L426.577 196.119L427.537 198.439L396.922 211.529ZM407.77 218.464L408.97 216.864L416.794 215.432C417.909 215.234 418.794 214.965 419.45 214.624C420.127 214.298 420.674 213.858 421.09 213.303C421.586 212.642 421.778 211.986 421.666 211.335C421.554 210.685 421.135 210.087 420.41 209.543C419.834 209.111 419.13 208.784 418.298 208.56C417.487 208.352 416.671 208.306 415.85 208.424L416.153 206.152C417.108 206.034 418.132 206.136 419.225 206.456C420.319 206.775 421.314 207.271 422.21 207.943C423.063 208.583 423.679 209.295 424.058 210.079C424.474 210.858 424.645 211.652 424.57 212.463C424.495 213.274 424.17 214.063 423.594 214.831C423.05 215.557 422.344 216.143 421.474 216.591C420.621 217.018 419.544 217.344 418.242 217.568L411.466 218.736L411.682 218.448L418.243 223.368L416.827 225.256L407.77 218.464Z" fill="url(#paint1_linear_187_1198)"/>
<path d="M449.859 138.146L431.152 142.749L432.336 141.125L431.905 146.107L429.275 145.879L429.772 140.14L447.68 135.949L447.597 136.906L413.41 124.15L413.662 121.24L450.121 135.117L449.859 138.146Z" fill="url(#paint2_linear_187_1198)"/>
<path d="M407.648 381.153C406.16 381.873 404.763 381.956 403.459 381.402C402.154 380.849 401.153 379.852 400.456 378.411C399.992 377.451 399.766 376.494 399.778 375.54C399.791 374.586 400.04 373.725 400.528 372.956C401.039 372.175 401.786 371.547 402.77 371.071C403.539 370.699 404.447 370.526 405.497 370.552C406.546 370.577 407.596 370.973 408.648 371.738C408.724 370.427 409.066 369.358 409.673 368.531C410.305 367.692 411.004 367.087 411.772 366.716C413.261 365.996 414.663 365.924 415.979 366.502C417.284 367.056 418.279 368.041 418.964 369.457C419.429 370.417 419.655 371.374 419.642 372.328C419.63 373.282 419.368 374.15 418.857 374.93C418.37 375.699 417.634 376.321 416.65 376.798C415.882 377.169 414.973 377.342 413.924 377.317C412.887 377.255 411.837 376.86 410.773 376.131C410.709 377.406 410.367 378.475 409.747 379.337C409.116 380.176 408.416 380.781 407.648 381.153ZM406.727 379.065C407.111 378.88 407.473 378.616 407.811 378.275C408.162 377.897 408.437 377.394 408.636 376.765C408.859 376.124 408.935 375.302 408.865 374.299C408.122 373.621 407.436 373.183 406.807 372.984C406.189 372.749 405.63 372.664 405.128 372.729C404.65 372.783 404.22 372.902 403.835 373.088C402.995 373.495 402.487 374.096 402.309 374.893C402.132 375.69 402.246 376.508 402.653 377.349C403.059 378.189 403.63 378.787 404.365 379.142C405.1 379.497 405.887 379.472 406.727 379.065ZM415.585 374.78C416.401 374.385 416.898 373.789 417.075 372.993C417.265 372.16 417.163 371.336 416.768 370.52C416.361 369.68 415.779 369.088 415.02 368.744C414.285 368.388 413.509 368.408 412.693 368.803C412.309 368.989 411.936 369.258 411.574 369.611C411.235 369.953 410.966 370.438 410.767 371.068C410.557 371.673 410.475 372.483 410.521 373.497C411.288 374.163 411.979 374.614 412.597 374.848C413.214 375.083 413.767 375.186 414.256 375.156C414.758 375.091 415.201 374.966 415.585 374.78Z" fill="url(#paint3_linear_187_1198)"/>
<path d="M337.465 434.921L333.085 416.161L334.694 417.365L329.718 416.874L329.977 414.247L335.71 414.812L339.687 432.769L338.731 432.675L351.895 398.642L354.8 398.929L340.49 435.22L337.465 434.921Z" fill="url(#paint4_linear_187_1198)"/>
<path d="M334.684 383.586L332.813 382.147L335.104 379.166L325.463 371.756L326.219 370.772L325.694 375.919L323.321 375.658L323.95 369.785L325.218 368.136L336.762 377.01L338.712 374.473L340.583 375.911L334.684 383.586ZM349.337 384.607L347.005 385.54L334.281 354.771L336.612 353.838L349.337 384.607ZM356.401 373.842L354.815 372.623L353.476 364.783C353.292 363.666 353.033 362.778 352.699 362.118C352.382 361.437 351.949 360.885 351.399 360.462C350.743 359.958 350.09 359.759 349.438 359.863C348.786 359.967 348.184 360.379 347.631 361.097C347.192 361.668 346.856 362.368 346.622 363.198C346.404 364.006 346.349 364.821 346.457 365.644L344.189 365.313C344.083 364.357 344.196 363.334 344.529 362.245C344.862 361.155 345.37 360.167 346.052 359.279C346.703 358.433 347.422 357.825 348.21 357.456C348.994 357.049 349.79 356.888 350.6 356.972C351.41 357.057 352.195 357.391 352.956 357.976C353.675 358.529 354.253 359.243 354.691 360.117C355.108 360.975 355.42 362.057 355.629 363.36L356.716 370.15L356.431 369.93L361.428 363.429L363.299 364.867L356.401 373.842Z" fill="url(#paint5_linear_187_1198)"/>
<path d="M144.437 383.108L146.12 381.453L165.464 378.362L164.609 379.204L167.995 359.942L169.677 358.287L183.925 372.775L181.929 374.738L170.149 362.76L170.748 362.171L167.544 379.964L166.147 381.338L148.303 384.244L148.902 383.655L160.681 395.633L158.685 397.596L144.437 383.108Z" fill="url(#paint6_linear_187_1198)"/>
<path d="M117.32 278.814L117.661 276.357L136.996 279.042L136.655 281.499L117.32 278.814ZM116.225 286.698L116.561 284.281L135.895 286.966L135.56 289.383L116.225 286.698Z" fill="url(#paint7_linear_187_1198)"/>
<path d="M229.797 385.401C231.165 386.328 231.937 387.496 232.111 388.902C232.285 390.309 231.923 391.674 231.025 392.999C230.426 393.882 229.711 394.556 228.879 395.023C228.047 395.49 227.176 395.705 226.267 395.669C225.335 395.617 224.417 395.285 223.512 394.671C222.806 394.192 222.201 393.492 221.698 392.571C221.195 391.65 221.011 390.543 221.147 389.25C219.973 389.84 218.877 390.079 217.857 389.967C216.815 389.841 215.941 389.538 215.235 389.06C213.866 388.132 213.103 386.953 212.944 385.525C212.77 384.118 213.124 382.764 214.007 381.461C214.606 380.579 215.321 379.904 216.153 379.437C216.985 378.97 217.867 378.762 218.798 378.814C219.708 378.85 220.615 379.176 221.52 379.789C222.226 380.268 222.831 380.968 223.334 381.889C223.8 382.817 223.984 383.924 223.885 385.21C225.021 384.628 226.118 384.388 227.175 384.493C228.216 384.619 229.091 384.922 229.797 385.401ZM228.451 387.243C228.098 387.003 227.689 386.823 227.224 386.701C226.722 386.586 226.149 386.6 225.504 386.743C224.837 386.871 224.088 387.216 223.255 387.779C223.04 388.761 223.004 389.575 223.147 390.219C223.253 390.871 223.46 391.398 223.767 391.8C224.053 392.186 224.372 392.5 224.725 392.739C225.498 393.263 226.273 393.402 227.052 393.156C227.83 392.911 228.481 392.402 229.005 391.629C229.529 390.857 229.761 390.064 229.7 389.25C229.64 388.436 229.224 387.767 228.451 387.243ZM220.307 381.721C219.556 381.212 218.792 381.081 218.013 381.326C217.198 381.579 216.535 382.08 216.027 382.831C215.503 383.603 215.282 384.404 215.364 385.233C215.425 386.047 215.83 386.708 216.58 387.217C216.934 387.457 217.354 387.645 217.841 387.782C218.306 387.904 218.861 387.893 219.505 387.75C220.135 387.629 220.877 387.295 221.732 386.747C221.925 385.75 221.968 384.926 221.862 384.274C221.756 383.622 221.568 383.092 221.298 382.683C220.99 382.281 220.66 381.961 220.307 381.721Z" fill="url(#paint8_linear_187_1198)"/>
<path d="M118.041 94.9377L119.266 96.9551L117.838 116.493L117.215 115.467L135.187 123.181L136.412 125.198L119.042 135.743L117.589 133.349L131.95 124.631L132.386 125.349L115.802 118.15L114.785 116.475L116.05 98.4398L116.485 99.1579L102.125 107.876L100.672 105.483L118.041 94.9377Z" fill="url(#paint9_linear_187_1198)"/>
<path d="M120.008 210.042C118.791 211.161 117.478 211.644 116.069 211.49C114.66 211.337 113.414 210.672 112.331 209.494C111.609 208.709 111.116 207.858 110.852 206.941C110.589 206.024 110.579 205.127 110.823 204.25C111.087 203.356 111.621 202.538 112.426 201.798C113.054 201.22 113.874 200.792 114.886 200.514C115.898 200.235 117.018 200.31 118.245 200.739C117.94 199.462 117.959 198.34 118.301 197.373C118.663 196.388 119.158 195.606 119.787 195.029C121.003 193.909 122.325 193.436 123.753 193.609C125.162 193.762 126.399 194.418 127.464 195.576C128.186 196.361 128.679 197.212 128.942 198.129C129.206 199.046 129.206 199.952 128.942 200.847C128.697 201.724 128.173 202.532 127.368 203.272C126.74 203.85 125.92 204.278 124.908 204.556C123.898 204.797 122.778 204.722 121.549 204.331C121.856 205.571 121.837 206.693 121.493 207.697C121.131 208.683 120.636 209.464 120.008 210.042ZM118.523 208.309C118.837 208.02 119.107 207.664 119.332 207.239C119.559 206.777 119.677 206.215 119.686 205.555C119.714 204.877 119.55 204.068 119.193 203.128C118.286 202.694 117.503 202.473 116.843 202.464C116.184 202.417 115.624 202.498 115.162 202.705C114.72 202.894 114.342 203.133 114.028 203.422C113.341 204.054 113.028 204.777 113.088 205.591C113.149 206.405 113.495 207.155 114.127 207.842C114.758 208.529 115.477 208.937 116.284 209.065C117.09 209.193 117.836 208.941 118.523 208.309ZM125.766 201.648C126.433 201.034 126.737 200.321 126.676 199.506C126.618 198.655 126.281 197.895 125.668 197.228C125.036 196.541 124.307 196.142 123.481 196.032C122.675 195.904 121.938 196.147 121.271 196.761C120.957 197.05 120.677 197.415 120.433 197.858C120.207 198.283 120.09 198.825 120.081 199.485C120.055 200.126 120.21 200.925 120.547 201.883C121.473 202.299 122.266 202.53 122.924 202.577C123.583 202.623 124.142 202.562 124.602 202.392C125.064 202.185 125.452 201.937 125.766 201.648Z" fill="url(#paint10_linear_187_1198)"/>
<path d="M199.949 109.981L202.262 110.876L195.214 129.079L192.901 128.184L199.949 109.981ZM192.526 107.107L194.802 107.988L187.754 126.191L185.478 125.31L192.526 107.107Z" fill="url(#paint11_linear_187_1198)"/>
<path d="M449.025 177.756C449.785 179.726 449.78 181.348 449.011 182.623C448.242 183.897 446.917 184.896 445.036 185.622L436.773 188.809L438.898 194.317C440.832 193.597 442.674 193.002 444.422 192.534C446.14 192.051 447.787 191.686 449.363 191.438C450.917 191.199 452.445 191.06 453.948 191.021L455.062 193.909C453.408 193.956 451.755 194.104 450.102 194.356C448.419 194.593 446.737 194.934 445.056 195.376C443.374 195.819 441.667 196.362 439.934 197.004L441.204 200.296L439.088 201.112L432.066 182.907L434.182 182.091L435.724 186.088L443.819 182.966C444.491 182.707 445.062 182.422 445.534 182.111C445.975 181.787 446.312 181.426 446.544 181.027C446.754 180.638 446.855 180.2 446.848 179.714C446.84 179.228 446.724 178.694 446.5 178.112C446.405 177.866 446.294 177.613 446.168 177.352C446.011 177.079 445.85 176.794 445.684 176.497L448.02 175.751C448.242 176.128 448.43 176.48 448.582 176.807C448.756 177.126 448.904 177.442 449.025 177.756Z" fill="url(#paint12_linear_187_1198)"/>
<path d="M335.076 110.621L318.24 114.764L319.306 113.302L318.918 117.786L316.551 117.581L316.998 112.416L333.115 108.644L333.041 109.505L302.272 98.0241L302.499 95.4059L335.312 107.895L335.076 110.621Z" fill="url(#paint13_linear_187_1198)"/>
<path d="M382.915 144.323L380.896 144.982L364.07 139.716L365.096 139.381L354.645 153.544L352.626 154.203L346.955 136.817L349.35 136.035L354.039 150.41L353.321 150.644L363.036 137.592L364.713 137.045L380.256 141.858L379.537 142.093L374.848 127.718L377.244 126.936L382.915 144.323Z" fill="url(#paint14_linear_187_1198)"/>
<path d="M369.472 87.07L368.198 88.7693L365.49 86.7391L358.925 95.4949L358.032 94.8253L362.669 95.2426L362.46 97.381L357.168 96.8774L355.67 95.7543L363.532 85.2705L361.228 83.5427L362.502 81.8434L369.472 87.07ZM370.234 73.8724L371.098 75.9603L343.545 87.7417L342.681 85.6538L370.234 73.8724ZM360.47 67.6307L359.39 69.0708L352.349 70.3602C351.346 70.5379 350.549 70.7803 349.959 71.0876C349.349 71.3804 348.857 71.7765 348.483 72.2757C348.036 72.8709 347.864 73.4613 347.964 74.0469C348.065 74.6325 348.442 75.1701 349.095 75.6596C349.613 76.0484 350.247 76.3436 350.996 76.5451C351.725 76.7322 352.46 76.773 353.199 76.6673L352.926 78.7121C352.066 78.8178 351.145 78.7267 350.161 78.4388C349.177 78.1508 348.282 77.7045 347.475 77.0998C346.707 76.5238 346.153 75.8831 345.812 75.1775C345.437 74.4767 345.284 73.7615 345.351 73.0319C345.418 72.3023 345.711 71.5919 346.229 70.9007C346.719 70.2478 347.355 69.7198 348.137 69.3165C348.905 68.9325 349.874 68.6396 351.046 68.4379L357.144 67.3862L356.95 67.6454L351.045 63.2179L352.319 61.5186L360.47 67.6307Z" fill="url(#paint15_linear_187_1198)"/>
<path d="M312.101 59.8654L310.579 61.498L297.729 49.5185L299.251 47.8859L312.101 59.8654ZM316.986 54.6253L315.489 56.2316L302.638 44.2521L304.136 42.6458L316.986 54.6253Z" fill="url(#paint16_linear_187_1198)"/>
<path d="M445.16 268.154L443.546 266.612L455.678 253.906L457.292 255.447L445.16 268.154ZM450.342 273.101L448.753 271.584L460.885 258.878L462.474 260.395L450.342 273.101Z" fill="url(#paint17_linear_187_1198)"/>
<path d="M144.16 160.154L142.546 158.612L154.678 145.906L156.292 147.447L144.16 160.154ZM149.342 165.101L147.754 163.584L159.885 150.878L161.474 152.395L149.342 165.101Z" fill="url(#paint18_linear_187_1198)"/>
<path d="M395.857 410.076C393.878 410.813 392.256 410.789 390.991 410.005C389.726 409.221 388.742 407.884 388.039 405.994L384.951 397.694L379.418 399.753C380.115 401.696 380.687 403.544 381.135 405.298C381.597 407.021 381.942 408.672 382.171 410.252C382.392 411.808 382.513 413.338 382.534 414.841L379.633 415.921C379.606 414.266 379.477 412.611 379.245 410.956C379.028 409.27 378.708 407.584 378.285 405.897C377.863 404.211 377.34 402.497 376.718 400.757L373.412 401.987L372.621 399.862L390.908 393.058L391.699 395.184L387.684 396.677L390.709 404.809C390.96 405.484 391.238 406.059 391.543 406.534C391.862 406.979 392.22 407.32 392.615 407.557C393.002 407.771 393.439 407.878 393.925 407.876C394.411 407.875 394.946 407.765 395.531 407.547C395.778 407.455 396.033 407.348 396.294 407.225C396.57 407.071 396.857 406.913 397.155 406.751L397.874 409.096C397.494 409.314 397.14 409.497 396.811 409.645C396.49 409.815 396.172 409.959 395.857 410.076Z" fill="url(#paint19_linear_187_1198)"/>
<path d="M399.059 282.134L395.117 265.249L396.566 266.333L392.087 265.891L392.32 263.526L397.479 264.035L401.059 280.196L400.199 280.112L412.046 249.482L414.661 249.74L401.782 282.402L399.059 282.134Z" fill="url(#paint20_linear_187_1198)"/>
<path d="M392.271 332.757L391.637 330.73L397.102 313.968L397.425 314.998L383.387 304.379L382.753 302.352L400.206 296.889L400.959 299.294L386.529 303.811L386.303 303.089L399.239 312.96L399.766 314.643L394.767 330.127L394.542 329.406L408.971 324.889L409.724 327.294L392.271 332.757Z" fill="url(#paint21_linear_187_1198)"/>
<path d="M425.402 350.502L423.718 349.207L425.78 346.524L417.103 339.855L417.783 338.97L417.311 343.601L415.175 343.367L415.742 338.082L416.883 336.597L427.272 344.584L429.027 342.3L430.711 343.595L425.402 350.502ZM438.589 351.421L436.491 352.261L425.039 324.568L427.137 323.729L438.589 351.421ZM444.947 341.733L443.52 340.636L442.315 333.579C442.149 332.574 441.916 331.775 441.616 331.181C441.33 330.568 440.94 330.071 440.445 329.691C439.856 329.237 439.267 329.057 438.68 329.151C438.094 329.245 437.552 329.616 437.054 330.262C436.659 330.776 436.357 331.406 436.146 332.153C435.95 332.88 435.901 333.614 435.998 334.354L433.956 334.056C433.861 333.196 433.963 332.276 434.263 331.295C434.562 330.315 435.019 329.425 435.634 328.626C436.219 327.864 436.866 327.318 437.576 326.985C438.281 326.619 438.998 326.474 439.727 326.55C440.455 326.626 441.162 326.927 441.847 327.453C442.494 327.951 443.015 328.593 443.408 329.38C443.783 330.153 444.065 331.126 444.252 332.299L445.231 338.41L444.974 338.212L449.472 332.361L451.156 333.655L444.947 341.733Z" fill="url(#paint22_linear_187_1198)"/>
<path d="M150.307 327.114C151.77 327.384 152.828 328.067 153.48 329.163C154.132 330.259 154.328 331.516 154.067 332.932C153.893 333.876 153.548 334.691 153.031 335.377C152.514 336.062 151.875 336.555 151.112 336.853C150.326 337.148 149.449 337.206 148.481 337.028C147.726 336.889 146.974 336.531 146.226 335.954C145.478 335.377 144.926 334.531 144.57 333.416C143.817 334.326 143 334.92 142.119 335.197C141.215 335.47 140.385 335.537 139.63 335.398C138.166 335.128 137.111 334.433 136.463 333.313C135.811 332.217 135.613 330.973 135.869 329.58C136.043 328.636 136.388 327.821 136.905 327.135C137.422 326.45 138.074 325.96 138.86 325.665C139.623 325.366 140.488 325.306 141.456 325.484C142.211 325.623 142.962 325.981 143.71 326.558C144.43 327.155 144.982 328.001 145.366 329.096C146.091 328.205 146.909 327.611 147.817 327.315C148.722 327.042 149.551 326.975 150.307 327.114ZM149.864 329.12C149.487 329.05 149.084 329.049 148.657 329.117C148.201 329.204 147.734 329.423 147.255 329.774C146.751 330.12 146.259 330.676 145.776 331.441C145.954 332.328 146.219 333.012 146.57 333.491C146.893 333.99 147.254 334.349 147.653 334.569C148.028 334.785 148.404 334.927 148.782 334.997C149.608 335.149 150.297 334.983 150.85 334.499C151.403 334.015 151.755 333.36 151.907 332.534C152.06 331.708 151.964 330.97 151.62 330.321C151.275 329.672 150.69 329.272 149.864 329.12ZM141.155 327.515C140.352 327.368 139.675 327.536 139.122 328.019C138.541 328.523 138.177 329.175 138.029 329.978C137.877 330.804 137.985 331.544 138.352 332.197C138.696 332.846 139.27 333.245 140.072 333.393C140.45 333.462 140.864 333.465 141.315 333.402C141.742 333.334 142.196 333.125 142.675 332.774C143.151 332.446 143.641 331.902 144.147 331.141C143.945 330.25 143.683 329.555 143.36 329.056C143.037 328.558 142.69 328.189 142.319 327.95C141.921 327.73 141.532 327.585 141.155 327.515Z" fill="url(#paint23_linear_187_1198)"/>
<path d="M51.3683 259.101L52.1749 257.136L55.3054 258.421L59.4613 248.297L60.4937 248.721L55.9007 249.482L55.5656 247.359L60.8144 246.518L62.5462 247.228L57.57 259.351L60.2342 260.444L59.4276 262.409L51.3683 259.101ZM53.9455 272.067L52.5846 270.263L76.2955 251.939L77.6564 253.742L53.9455 272.067ZM64.964 275.656L65.6475 273.991L72.1394 270.974C73.0658 270.55 73.7761 270.115 74.2704 269.67C74.7869 269.233 75.1636 268.726 75.4006 268.149C75.6831 267.461 75.702 266.846 75.4573 266.304C75.2126 265.763 74.7128 265.337 73.9579 265.027C73.3585 264.781 72.671 264.655 71.8956 264.648C71.1424 264.65 70.4213 264.795 69.7323 265.083L69.4834 263.035C70.2885 262.717 71.2034 262.574 72.2282 262.605C73.253 262.637 74.2317 262.844 75.1642 263.227C76.0523 263.591 76.7499 264.072 77.257 264.669C77.7955 265.254 78.1239 265.907 78.2421 266.63C78.3604 267.353 78.2555 268.115 77.9274 268.914C77.6175 269.669 77.1346 270.34 76.4786 270.926C75.8317 271.491 74.9668 272.018 73.8838 272.508L68.2452 275.057L68.3682 274.758L75.1954 277.56L74.3888 279.525L64.964 275.656Z" fill="url(#paint24_linear_187_1198)"/>
<path d="M188.988 400.98L188.567 404.12C191.32 404.538 193.436 405.281 194.915 406.351C196.394 407.421 197.371 408.714 197.846 410.231C198.321 411.747 198.444 413.362 198.214 415.075C198.061 416.216 197.73 417.334 197.22 418.428C196.737 419.502 196.017 420.446 195.06 421.262C194.107 422.055 192.89 422.642 191.41 423.025C189.93 423.408 188.128 423.481 186.005 423.245L185.479 427.17L182.303 426.745L182.829 422.82C180.671 422.482 178.916 421.932 177.566 421.17C176.242 420.387 175.238 419.478 174.553 418.442C173.872 417.382 173.44 416.271 173.256 415.108C173.073 413.946 173.055 412.817 173.202 411.723C173.425 410.058 173.965 408.556 174.822 407.218C175.703 405.883 177 404.883 178.711 404.216C180.423 403.55 182.65 403.376 185.392 403.695L185.813 400.555L188.988 400.98ZM185.028 406.407C183.095 406.196 181.531 406.301 180.337 406.722C179.142 407.143 178.24 407.822 177.631 408.757C177.021 409.692 176.629 410.814 176.453 412.122C176.17 414.239 176.552 415.998 177.599 417.397C178.646 418.797 180.508 419.724 183.183 420.179L185.028 406.407ZM188.204 406.832L186.359 420.605C189.131 420.88 191.184 420.465 192.518 419.36C193.88 418.235 194.698 416.649 194.972 414.604C195.154 413.248 195.072 412.05 194.727 411.011C194.385 409.949 193.68 409.067 192.611 408.367C191.57 407.646 190.101 407.135 188.204 406.832Z" fill="url(#paint25_linear_187_1198)"/>
<path d="M86.4223 337.277L71.0597 329.239L72.8262 328.849L69.5678 331.953L67.929 330.233L71.6827 326.657L86.2608 334.498L85.6351 335.094L70.1705 306.122L72.0734 304.31L88.4034 335.39L86.4223 337.277Z" fill="url(#paint26_linear_187_1198)"/>
<path d="M103.302 167.256L100.342 166.126C99.3045 168.71 98.0954 170.599 96.7148 171.793C95.3342 172.987 93.8514 173.642 92.2664 173.756C90.6815 173.87 89.0818 173.619 87.4674 173.003C86.3911 172.592 85.3791 172.013 84.4312 171.266C83.4971 170.55 82.7427 169.633 82.1678 168.514C81.6153 167.404 81.3224 166.085 81.2893 164.557C81.2561 163.028 81.5979 161.258 82.3148 159.245L78.6151 157.833L79.7577 154.84L83.4573 156.252C84.281 154.229 85.2187 152.647 86.2703 151.507C87.3358 150.398 88.4513 149.629 89.6167 149.201C90.8046 148.781 91.9854 148.615 93.159 148.703C94.3327 148.792 95.4352 149.033 96.4667 149.426C98.0362 150.025 99.3738 150.896 100.48 152.037C101.577 153.201 102.253 154.692 102.51 156.511C102.766 158.33 102.424 160.537 101.485 163.133L104.444 164.263L103.302 167.256ZM98.9286 162.157C99.577 160.324 99.8333 158.778 99.6974 157.518C99.5615 156.259 99.1083 155.226 98.3377 154.418C97.5672 153.61 96.5653 152.971 95.3321 152.5C93.3365 151.738 91.5375 151.706 89.9351 152.405C88.3326 153.103 87.003 154.702 85.9462 157.202L98.9286 162.157ZM97.7861 165.151L84.8036 160.195C83.9005 162.83 83.8335 164.924 84.6025 166.476C85.3854 168.06 86.741 169.219 88.6693 169.955C89.9473 170.443 91.1316 170.638 92.2221 170.541C93.335 170.452 94.3547 169.968 95.2812 169.088C96.2216 168.24 97.0565 166.927 97.7861 165.151Z" fill="url(#paint27_linear_187_1198)"/>
<path d="M244.733 56.0118L256.081 42.9024L256.055 44.7112L253.781 40.8278L255.832 39.6274L258.451 44.101L247.475 56.4921L247.039 55.7464L278.785 47.3392L280.113 49.6071L246.115 58.3729L244.733 56.0118Z" fill="url(#paint28_linear_187_1198)"/>
<path d="M253.579 91.8011L255.306 93.0369L253.337 95.7892L262.238 102.156L261.589 103.064L261.902 98.4191L264.045 98.5796L263.66 103.882L262.571 105.404L251.913 97.7802L250.238 100.123L248.51 98.8868L253.579 91.8011ZM240.367 91.3357L242.435 90.4248L254.833 117.707L252.765 118.617L240.367 91.3357ZM234.347 101.237L235.811 102.284L237.258 109.295C237.458 110.294 237.718 111.085 238.039 111.669C238.345 112.271 238.752 112.754 239.26 113.117C239.865 113.55 240.459 113.71 241.042 113.596C241.625 113.482 242.154 113.093 242.629 112.429C243.006 111.902 243.287 111.262 243.472 110.509C243.642 109.775 243.667 109.04 243.544 108.304L245.595 108.531C245.72 109.388 245.649 110.311 245.384 111.301C245.118 112.292 244.692 113.197 244.105 114.016C243.547 114.797 242.919 115.366 242.221 115.723C241.529 116.113 240.817 116.282 240.086 116.232C239.355 116.181 238.638 115.904 237.936 115.401C237.272 114.927 236.73 114.303 236.309 113.53C235.908 112.771 235.593 111.808 235.365 110.641L234.177 104.568L234.44 104.757L230.147 110.759L228.419 109.523L234.347 101.237Z" fill="url(#paint29_linear_187_1198)"/>
<path d="M158.75 89.7503C158.152 91.1128 157.245 91.9858 156.028 92.3692C154.811 92.7526 153.544 92.6549 152.225 92.0762C151.346 91.6904 150.632 91.1674 150.083 90.5071C149.534 89.8468 149.202 89.1112 149.086 88.3003C148.98 87.4674 149.124 86.6004 149.52 85.6994C149.829 84.9961 150.349 84.3467 151.083 83.7511C151.816 83.1556 152.766 82.8124 153.933 82.7217C153.219 81.7795 152.828 80.848 152.761 79.9272C152.703 78.9844 152.828 78.1614 153.137 77.4581C153.735 76.0956 154.653 75.2274 155.892 74.8537C157.108 74.4703 158.365 74.5632 159.662 75.1322C160.541 75.518 161.255 76.0411 161.804 76.7013C162.353 77.3616 162.68 78.1082 162.786 78.9411C162.902 79.752 162.762 80.608 162.367 81.5091C162.058 82.2123 161.537 82.8617 160.804 83.4573C160.059 84.0212 159.109 84.3644 157.954 84.4867C158.655 85.3973 159.046 86.3288 159.126 87.2812C159.184 88.224 159.059 89.047 158.75 89.7503ZM156.9 88.8597C157.054 88.5081 157.148 88.1165 157.18 87.6851C157.199 87.222 157.094 86.7168 156.862 86.1696C156.64 85.6004 156.212 84.9932 155.578 84.3479C154.674 84.318 153.948 84.4189 153.401 84.6505C152.841 84.8505 152.409 85.1194 152.103 85.4571C151.807 85.7728 151.582 86.1065 151.428 86.4581C151.09 87.2273 151.094 87.9364 151.438 88.5854C151.782 89.2345 152.339 89.7278 153.108 90.0654C153.877 90.4029 154.617 90.4787 155.328 90.2926C156.038 90.1065 156.562 89.6289 156.9 88.8597ZM160.459 80.7503C160.787 80.0031 160.779 79.305 160.435 78.656C160.078 77.9753 159.526 77.471 158.779 77.1431C158.01 76.8055 157.265 76.7407 156.545 76.9488C155.834 77.1349 155.315 77.6015 154.987 78.3487C154.833 78.7003 154.734 79.1029 154.693 79.5563C154.661 79.9878 154.76 80.4771 154.992 81.0244C155.202 81.5619 155.619 82.1643 156.243 82.8316C157.157 82.8395 157.894 82.7434 158.453 82.5435C159.013 82.3435 159.452 82.0904 159.769 81.7843C160.075 81.4466 160.305 81.102 160.459 80.7503Z" fill="url(#paint30_linear_187_1198)"/>
<path d="M460.442 220.688L460.537 222.101L454.378 232.112L454.33 231.394L461.771 240.467L461.866 241.88L449.702 242.698L449.589 241.022L459.646 240.346L459.68 240.848L452.836 232.432L452.758 231.259L458.414 222.003L458.447 222.506L448.39 223.182L448.277 221.506L460.442 220.688Z" fill="url(#paint31_linear_187_1198)"/>
<path d="M389.853 169.14L391.6 167.953C390.583 166.4 390.012 165.018 389.886 163.808C389.759 162.598 389.967 161.537 390.509 160.627C391.051 159.717 391.799 158.938 392.752 158.291C393.387 157.859 394.089 157.526 394.86 157.293C395.607 157.056 396.397 156.993 397.228 157.105C398.045 157.227 398.878 157.57 399.726 158.135C400.575 158.7 401.412 159.562 402.239 160.722L404.423 159.238L405.623 161.004L403.44 162.488C404.232 163.71 404.739 164.826 404.961 165.836C405.161 166.842 405.156 167.745 404.945 168.546C404.722 169.355 404.362 170.064 403.866 170.672C403.37 171.28 402.818 171.791 402.209 172.205C401.283 172.834 400.297 173.234 399.251 173.403C398.196 173.559 397.123 173.36 396.03 172.806C394.938 172.252 393.862 171.223 392.801 169.72L391.054 170.907L389.853 169.14ZM394.309 168.694C395.064 169.748 395.812 170.478 396.552 170.884C397.293 171.29 398.031 171.437 398.766 171.324C399.502 171.211 400.234 170.907 400.962 170.412C402.139 169.611 402.843 168.64 403.072 167.497C403.302 166.355 402.935 165.018 401.971 163.487L394.309 168.694ZM393.109 166.928L400.77 161.72C399.674 160.221 398.555 159.386 397.413 159.214C396.249 159.038 395.098 159.337 393.96 160.11C393.205 160.623 392.647 161.196 392.284 161.829C391.908 162.472 391.784 163.214 391.911 164.056C392.017 164.894 392.416 165.851 393.109 166.928Z" fill="url(#paint32_linear_187_1198)"/>
<path d="M309.824 433.648L308.41 433.726L298.473 427.449L299.191 427.409L290.03 434.742L288.616 434.82L287.944 422.646L289.621 422.554L290.177 432.618L289.674 432.646L298.171 425.903L299.345 425.838L308.533 431.604L308.03 431.632L307.474 421.568L309.151 421.475L309.824 433.648Z" fill="url(#paint33_linear_187_1198)"/>
<path d="M439.582 298.715L440.748 300.476C442.313 299.477 443.701 298.922 444.913 298.811C446.125 298.699 447.183 298.919 448.086 299.472C448.99 300.025 449.76 300.782 450.396 301.742C450.82 302.383 451.144 303.089 451.368 303.862C451.597 304.613 451.65 305.403 451.528 306.232C451.396 307.048 451.043 307.877 450.468 308.719C449.894 309.56 449.021 310.387 447.852 311.2L449.31 313.401L447.529 314.581L446.071 312.38C444.84 313.157 443.718 313.651 442.705 313.861C441.697 314.049 440.794 314.033 439.996 313.813C439.189 313.58 438.485 313.212 437.883 312.708C437.281 312.205 436.776 311.647 436.37 311.033C435.751 310.099 435.364 309.109 435.207 308.061C435.064 307.004 435.276 305.933 435.842 304.848C436.409 303.762 437.451 302.698 438.967 301.655L437.801 299.895L439.582 298.715ZM439.974 303.176C438.912 303.918 438.173 304.657 437.758 305.393C437.343 306.128 437.188 306.864 437.292 307.601C437.396 308.338 437.692 309.073 438.177 309.807C438.964 310.994 439.927 311.709 441.067 311.952C442.206 312.195 443.548 311.844 445.09 310.899L439.974 303.176ZM441.755 301.996L446.871 309.72C448.383 308.641 449.232 307.532 449.417 306.392C449.607 305.23 449.322 304.076 448.562 302.928C448.058 302.168 447.492 301.603 446.863 301.233C446.225 300.849 445.484 300.716 444.641 300.833C443.802 300.929 442.84 301.316 441.755 301.996Z" fill="url(#paint34_linear_187_1198)"/>
<path d="M265.126 450.658L264.823 449.275L269.437 438.464L269.591 439.167L260.892 431.291L260.59 429.908L272.501 427.304L272.86 428.946L263.012 431.098L262.905 430.606L270.915 437.92L271.166 439.069L266.938 449.058L266.83 448.566L276.678 446.413L277.036 448.055L265.126 450.658Z" fill="url(#paint35_linear_187_1198)"/>
<path d="M110.251 362.739L111.745 364.232C113.08 362.941 114.329 362.12 115.495 361.769C116.66 361.418 117.74 361.423 118.736 361.785C119.732 362.146 120.637 362.734 121.452 363.548C121.995 364.091 122.454 364.719 122.828 365.431C123.201 366.121 123.411 366.885 123.457 367.722C123.491 368.548 123.31 369.43 122.915 370.37C122.519 371.309 121.83 372.294 120.846 373.324L122.713 375.189L121.204 376.7L119.336 374.835C118.284 375.842 117.284 376.55 116.333 376.957C115.383 377.343 114.495 377.507 113.669 377.451C112.832 377.383 112.068 377.163 111.378 376.79C110.688 376.417 110.082 375.97 109.561 375.45C108.769 374.659 108.192 373.765 107.829 372.77C107.478 371.763 107.472 370.671 107.811 369.494C108.149 368.318 108.958 367.067 110.236 365.743L108.741 364.25L110.251 362.739ZM111.526 367.032C110.633 367.971 110.056 368.843 109.796 369.646C109.536 370.45 109.531 371.202 109.78 371.903C110.03 372.605 110.465 373.266 111.088 373.888C112.095 374.895 113.182 375.403 114.347 375.414C115.512 375.425 116.757 374.813 118.08 373.579L111.526 367.032ZM113.036 365.521L119.589 372.068C120.856 370.71 121.466 369.454 121.42 368.3C121.375 367.123 120.865 366.049 119.892 365.076C119.246 364.432 118.579 363.991 117.888 363.754C117.187 363.505 116.434 363.522 115.631 363.806C114.828 364.066 113.963 364.638 113.036 365.521Z" fill="url(#paint36_linear_187_1198)"/>
<path d="M259.155 393.575C258.042 392.713 257.486 391.785 257.486 390.793C257.486 389.801 257.898 388.774 258.722 387.712L262.34 383.046L259.23 380.634C258.374 381.712 257.528 382.685 256.691 383.555C255.877 384.422 255.063 385.198 254.248 385.882C253.444 386.554 252.62 387.16 251.775 387.7L250.145 386.435C251.073 385.839 251.965 385.185 252.821 384.472C253.7 383.756 254.543 382.983 255.35 382.151C256.158 381.319 256.945 380.421 257.713 379.458L255.854 378.016L256.781 376.821L267.06 384.793L266.133 385.988L263.876 384.238L260.331 388.808C260.037 389.188 259.809 389.547 259.647 389.887C259.507 390.224 259.439 390.546 259.444 390.853C259.458 391.148 259.551 391.433 259.723 391.708C259.895 391.982 260.145 392.247 260.473 392.502C260.612 392.61 260.763 392.717 260.924 392.822C261.108 392.924 261.299 393.031 261.495 393.143L260.419 394.374C260.162 394.235 259.934 394.099 259.734 393.964C259.525 393.842 259.332 393.713 259.155 393.575Z" fill="url(#paint37_linear_187_1198)"/>
<path d="M62.9497 216.29L64.3656 216.313L73.8297 223.284L73.1098 223.272L82.7711 216.612L84.1869 216.635L83.989 228.826L82.3093 228.798L82.4729 218.72L82.9768 218.728L74.0203 224.847L72.8445 224.828L64.0913 218.421L64.5952 218.429L64.4316 228.508L62.7518 228.481L62.9497 216.29Z" fill="url(#paint38_linear_187_1198)"/>
<path d="M218.133 57.5878L216.338 58.6997C217.288 60.2945 217.8 61.6993 217.875 62.9139C217.949 64.1286 217.697 65.179 217.116 66.0653C216.536 66.9516 215.756 67.698 214.777 68.3046C214.124 68.7089 213.408 69.0112 212.628 69.2115C211.871 69.417 211.08 69.4459 210.254 69.2983C209.443 69.1423 208.625 68.7641 207.802 68.1637C206.978 67.5633 206.178 66.6662 205.401 65.4723L203.156 66.8622L202.032 65.0462L204.276 63.6563C203.537 62.4016 203.078 61.2651 202.899 60.2467C202.742 59.2336 202.786 58.3315 203.03 57.5404C203.287 56.741 203.677 56.0481 204.198 55.4617C204.72 54.8754 205.293 54.3885 205.919 54.001C206.871 53.4113 207.874 53.0542 208.926 52.9297C209.986 52.8188 211.05 53.0632 212.118 53.6629C213.186 54.2626 214.217 55.3362 215.213 56.8837L217.009 55.7718L218.133 57.5878ZM213.663 57.844C212.953 56.759 212.237 55.9979 211.515 55.5608C210.792 55.1236 210.061 54.9459 209.321 55.0276C208.582 55.1093 207.838 55.3818 207.089 55.8451C205.879 56.5949 205.135 57.5356 204.857 58.6674C204.579 59.7992 204.889 61.1505 205.786 62.7213L213.663 57.844ZM214.787 59.66L206.911 64.5373C207.942 66.0816 209.025 66.9637 210.159 67.1838C211.315 67.4091 212.477 67.1595 213.647 66.4351C214.423 65.955 215.005 65.4062 215.394 64.7887C215.797 64.1629 215.953 63.4266 215.861 62.5799C215.792 61.7384 215.434 60.7651 214.787 59.66Z" fill="url(#paint39_linear_187_1198)"/>
<path d="M109.412 244.374C110.507 243.489 111.537 243.16 112.503 243.388C113.468 243.615 114.374 244.252 115.219 245.297L118.93 249.889L121.991 247.415C121.138 246.335 120.385 245.288 119.73 244.274C119.073 243.283 118.505 242.312 118.025 241.363C117.556 240.425 117.155 239.484 116.823 238.539L118.428 237.241C118.796 238.282 119.228 239.3 119.725 240.297C120.22 241.317 120.78 242.315 121.404 243.291C122.029 244.268 122.722 245.24 123.484 246.208L125.313 244.73L126.264 245.906L116.147 254.082L115.196 252.906L117.418 251.111L113.782 246.612C113.48 246.239 113.183 245.935 112.889 245.699C112.593 245.485 112.295 245.345 111.995 245.279C111.705 245.226 111.406 245.251 111.1 245.355C110.793 245.459 110.477 245.642 110.154 245.903C110.017 246.014 109.879 246.136 109.74 246.269C109.598 246.425 109.45 246.585 109.296 246.751L108.345 245.421C108.539 245.203 108.724 245.012 108.901 244.849C109.067 244.673 109.237 244.515 109.412 244.374Z" fill="url(#paint40_linear_187_1198)"/>
<defs>
<linearGradient id="paint0_linear_187_1198" x1="364.88" y1="124.179" x2="397.742" y2="107.794" gradientUnits="userSpaceOnUse">
<stop stop-color="#00241E"/>
<stop offset="0.685" stop-color="#00241E" stop-opacity="0.6"/>
</linearGradient>
<linearGradient id="paint1_linear_187_1198" x1="426.05" y1="180.925" x2="403.235" y2="211.35" gradientUnits="userSpaceOnUse">
<stop stop-color="#D5D52C" stop-opacity="0.6"/>
<stop offset="1" stop-color="#D5D52C"/>
</linearGradient>
<linearGradient id="paint2_linear_187_1198" x1="401.895" y1="133.336" x2="437.651" y2="136.432" gradientUnits="userSpaceOnUse">
<stop stop-color="#D5D52C" stop-opacity="0.6"/>
<stop offset="1" stop-color="#D5D52C"/>
</linearGradient>
<linearGradient id="paint3_linear_187_1198" x1="397.863" y1="346.739" x2="413.493" y2="379.047" gradientUnits="userSpaceOnUse">
<stop stop-color="#00241E"/>
<stop offset="0.685" stop-color="#00241E" stop-opacity="0.6"/>
</linearGradient>
<linearGradient id="paint4_linear_187_1198" x1="342.846" y1="387.018" x2="339.324" y2="422.735" gradientUnits="userSpaceOnUse">
<stop stop-color="#D5D52C" stop-opacity="0.6"/>
<stop offset="1" stop-color="#D5D52C"/>
</linearGradient>
<linearGradient id="paint5_linear_187_1198" x1="319.082" y1="355.116" x2="349.233" y2="378.293" gradientUnits="userSpaceOnUse">
<stop stop-color="#D5D52C" stop-opacity="0.6"/>
<stop offset="1" stop-color="#D5D52C"/>
</linearGradient>
<linearGradient id="paint6_linear_187_1198" x1="188.125" y1="358.791" x2="159.612" y2="386.831" gradientUnits="userSpaceOnUse">
<stop stop-color="#D5D52C" stop-opacity="0.6"/>
<stop offset="1" stop-color="#D5D52C"/>
</linearGradient>
<linearGradient id="paint7_linear_187_1198" x1="128.781" y1="253.388" x2="123.998" y2="287.827" gradientUnits="userSpaceOnUse">
<stop stop-color="#00241E"/>
<stop offset="0.685" stop-color="#00241E" stop-opacity="0.6"/>
</linearGradient>
<linearGradient id="paint8_linear_187_1198" x1="204.908" y1="411.102" x2="225.048" y2="381.395" gradientUnits="userSpaceOnUse">
<stop stop-color="#00241E"/>
<stop offset="0.685" stop-color="#00241E" stop-opacity="0.6"/>
</linearGradient>
<linearGradient id="paint9_linear_187_1198" x1="131.69" y1="143.039" x2="110.937" y2="108.854" gradientUnits="userSpaceOnUse">
<stop stop-color="#D5D52C" stop-opacity="0.6"/>
<stop offset="1" stop-color="#D5D52C"/>
</linearGradient>
<linearGradient id="paint10_linear_187_1198" x1="100.7" y1="179.921" x2="124.996" y2="206.338" gradientUnits="userSpaceOnUse">
<stop stop-color="#00241E"/>
<stop offset="0.685" stop-color="#00241E" stop-opacity="0.6"/>
</linearGradient>
<linearGradient id="paint11_linear_187_1198" x1="222.068" y1="126.967" x2="189.645" y2="114.413" gradientUnits="userSpaceOnUse">
<stop stop-color="#00241E"/>
<stop offset="0.685" stop-color="#00241E" stop-opacity="0.6"/>
</linearGradient>
<linearGradient id="paint12_linear_187_1198" x1="416.944" y1="195.12" x2="446.244" y2="183.819" gradientUnits="userSpaceOnUse">
<stop stop-color="#00241E"/>
<stop offset="0.685" stop-color="#00241E" stop-opacity="0.6"/>
</linearGradient>
<linearGradient id="paint13_linear_187_1198" x1="292.895" y1="105.336" x2="328.651" y2="108.432" gradientUnits="userSpaceOnUse">
<stop stop-color="#00241E"/>
<stop offset="0.685" stop-color="#00241E" stop-opacity="0.6"/>
</linearGradient>
<linearGradient id="paint14_linear_187_1198" x1="338.522" y1="145.209" x2="376.375" y2="132.862" gradientUnits="userSpaceOnUse">
<stop stop-color="#00241E"/>
<stop offset="0.685" stop-color="#00241E" stop-opacity="0.6"/>
</linearGradient>
<linearGradient id="paint15_linear_187_1198" x1="343.235" y1="99.7038" x2="361.066" y2="75.9249" gradientUnits="userSpaceOnUse">
<stop stop-color="#D5D52C" stop-opacity="0.6"/>
<stop offset="1" stop-color="#D5D52C"/>
</linearGradient>
<linearGradient id="paint16_linear_187_1198" x1="290.383" y1="71.315" x2="314.092" y2="45.8832" gradientUnits="userSpaceOnUse">
<stop stop-color="#00241E"/>
<stop offset="0.685" stop-color="#00241E" stop-opacity="0.6"/>
</linearGradient>
<linearGradient id="paint17_linear_187_1198" x1="433.97" y1="246.301" x2="459.118" y2="270.311" gradientUnits="userSpaceOnUse">
<stop stop-color="#00241E"/>
<stop offset="0.685" stop-color="#00241E" stop-opacity="0.6"/>
</linearGradient>
<linearGradient id="paint18_linear_187_1198" x1="132.971" y1="138.301" x2="158.118" y2="162.311" gradientUnits="userSpaceOnUse">
<stop stop-color="#00241E"/>
<stop offset="0.685" stop-color="#00241E" stop-opacity="0.6"/>
</linearGradient>
<linearGradient id="paint19_linear_187_1198" x1="378.877" y1="377.791" x2="389.827" y2="407.224" gradientUnits="userSpaceOnUse">
<stop stop-color="#00241E"/>
<stop offset="0.685" stop-color="#00241E" stop-opacity="0.6"/>
</linearGradient>
<linearGradient id="paint20_linear_187_1198" x1="404.846" y1="240.018" x2="401.324" y2="275.735" gradientUnits="userSpaceOnUse">
<stop stop-color="#00241E"/>
<stop offset="0.685" stop-color="#00241E" stop-opacity="0.6"/>
</linearGradient>
<linearGradient id="paint21_linear_187_1198" x1="391.914" y1="288.356" x2="403.809" y2="326.354" gradientUnits="userSpaceOnUse">
<stop stop-color="#00241E"/>
<stop offset="0.685" stop-color="#00241E" stop-opacity="0.6"/>
</linearGradient>
<linearGradient id="paint22_linear_187_1198" x1="413.082" y1="324.116" x2="436.646" y2="342.23" gradientUnits="userSpaceOnUse">
<stop stop-color="#D5D52C" stop-opacity="0.6"/>
<stop offset="1" stop-color="#D5D52C"/>
</linearGradient>
<linearGradient id="paint23_linear_187_1198" x1="137.96" y1="356.175" x2="146.578" y2="309.387" gradientUnits="userSpaceOnUse">
<stop stop-color="#D5D52C" stop-opacity="0.6"/>
<stop offset="1" stop-color="#D5D52C"/>
</linearGradient>
<linearGradient id="paint24_linear_187_1198" x1="73.5906" y1="240.282" x2="62.3038" y2="267.777" gradientUnits="userSpaceOnUse">
<stop stop-color="#D5D52C" stop-opacity="0.6"/>
<stop offset="1" stop-color="#D5D52C"/>
</linearGradient>
<linearGradient id="paint25_linear_187_1198" x1="188.845" y1="390.936" x2="184.451" y2="423.73" gradientUnits="userSpaceOnUse">
<stop stop-color="#00241E"/>
<stop offset="0.685" stop-color="#00241E" stop-opacity="0.6"/>
</linearGradient>
<linearGradient id="paint26_linear_187_1198" x1="58.3014" y1="305.396" x2="83.0553" y2="331.384" gradientUnits="userSpaceOnUse">
<stop stop-color="#00241E"/>
<stop offset="0.685" stop-color="#00241E" stop-opacity="0.6"/>
</linearGradient>
<linearGradient id="paint27_linear_187_1198" x1="113.111" y1="169.421" x2="82.1996" y2="157.622" gradientUnits="userSpaceOnUse">
<stop stop-color="#00241E"/>
<stop offset="0.685" stop-color="#00241E" stop-opacity="0.6"/>
</linearGradient>
<linearGradient id="paint28_linear_187_1198" x1="282.214" y1="35.9531" x2="251.242" y2="54.0862" gradientUnits="userSpaceOnUse">
<stop stop-color="#00241E"/>
<stop offset="0.685" stop-color="#00241E" stop-opacity="0.6"/>
</linearGradient>
<linearGradient id="paint29_linear_187_1198" x1="266.799" y1="117.747" x2="242.625" y2="100.455" gradientUnits="userSpaceOnUse">
<stop stop-color="#D5D52C" stop-opacity="0.6"/>
<stop offset="1" stop-color="#D5D52C"/>
</linearGradient>
<linearGradient id="paint30_linear_187_1198" x1="133.296" y1="71.0675" x2="166.161" y2="85.491" gradientUnits="userSpaceOnUse">
<stop stop-color="#D5D52C" stop-opacity="0.6"/>
<stop offset="1" stop-color="#D5D52C"/>
</linearGradient>
<linearGradient id="paint31_linear_187_1198" x1="448.895" y1="249.848" x2="446.225" y2="210.122" gradientUnits="userSpaceOnUse">
<stop stop-color="#00241E"/>
<stop offset="0.685" stop-color="#00241E" stop-opacity="0.6"/>
</linearGradient>
<linearGradient id="paint32_linear_187_1198" x1="382.196" y1="169.658" x2="409.56" y2="151.059" gradientUnits="userSpaceOnUse">
<stop stop-color="#D5D52C" stop-opacity="0.6"/>
<stop offset="1" stop-color="#D5D52C"/>
</linearGradient>
<linearGradient id="paint33_linear_187_1198" x1="280.804" y1="421.754" x2="320.559" y2="419.558" gradientUnits="userSpaceOnUse">
<stop stop-color="#00241E"/>
<stop offset="0.685" stop-color="#00241E" stop-opacity="0.6"/>
</linearGradient>
<linearGradient id="paint34_linear_187_1198" x1="439.155" y1="291.052" x2="457.427" y2="318.636" gradientUnits="userSpaceOnUse">
<stop stop-color="#D5D52C" stop-opacity="0.6"/>
<stop offset="1" stop-color="#D5D52C"/>
</linearGradient>
<linearGradient id="paint35_linear_187_1198" x1="272.244" y1="420.113" x2="280.746" y2="459.011" gradientUnits="userSpaceOnUse">
<stop stop-color="#00241E"/>
<stop offset="0.685" stop-color="#00241E" stop-opacity="0.6"/>
</linearGradient>
<linearGradient id="paint36_linear_187_1198" x1="108.305" y1="355.315" x2="131.712" y2="378.699" gradientUnits="userSpaceOnUse">
<stop stop-color="#00241E"/>
<stop offset="0.685" stop-color="#00241E" stop-opacity="0.6"/>
</linearGradient>
<linearGradient id="paint37_linear_187_1198" x1="275.103" y1="375.42" x2="255.857" y2="400.236" gradientUnits="userSpaceOnUse">
<stop stop-color="#D5D52C" stop-opacity="0.6"/>
<stop offset="1" stop-color="#D5D52C"/>
</linearGradient>
<linearGradient id="paint38_linear_187_1198" x1="91.0473" y1="230.225" x2="51.2366" y2="229.579" gradientUnits="userSpaceOnUse">
<stop stop-color="#00241E"/>
<stop offset="0.685" stop-color="#00241E" stop-opacity="0.6"/>
</linearGradient>
<linearGradient id="paint39_linear_187_1198" x1="225.806" y1="57.3962" x2="197.676" y2="74.8155" gradientUnits="userSpaceOnUse">
<stop stop-color="#00241E"/>
<stop offset="0.685" stop-color="#00241E" stop-opacity="0.6"/>
</linearGradient>
<linearGradient id="paint40_linear_187_1198" x1="123.425" y1="264.061" x2="103.686" y2="239.636" gradientUnits="userSpaceOnUse">
<stop stop-color="#D5D52C" stop-opacity="0.6"/>
<stop offset="1" stop-color="#D5D52C"/>
</linearGradient>
</defs>
</svg>
