<svg width="246" height="291" viewBox="0 0 246 291" fill="none" xmlns="http://www.w3.org/2000/svg">
<path fill-rule="evenodd" clip-rule="evenodd" d="M198.111 57.2984C180.208 45.8853 153.209 38.612 123 38.612C92.7865 38.612 65.7966 45.8852 47.8935 57.3032L0 38.8446L123 0L246 38.8399L237.67 42.0505C237.577 42.6564 237.582 43.4071 237.687 44.3282C237.81 45.3909 237.787 46.469 237.765 47.5476C237.755 48.0542 237.744 48.561 237.749 49.0663C237.791 53.8376 237.791 53.8376 235.27 57.5454C241.148 60.223 241.741 61.9227 239.178 67.8761C238.826 68.6927 238.807 69.7372 238.907 70.644C239.193 73.2576 239.539 75.8633 239.9 78.5859C240.025 79.5278 240.152 80.4838 240.279 81.4589C237.202 81.4207 234.496 80.2603 231.843 79.1222C230.542 78.5642 229.254 78.0115 227.94 77.5991C227.985 76.7876 228.047 76.0085 228.107 75.2529C228.241 73.5599 228.366 71.9848 228.277 70.4256C228.192 68.8684 227.707 67.24 227.014 65.8299C225.695 63.1475 226.791 59.8907 229.583 58.9127C230.207 58.6945 230.834 58.4833 231.275 58.3347C231.458 58.2732 231.609 58.2225 231.714 58.1863C231.006 53.8516 230.327 49.6778 229.593 45.1639L198.111 57.2984ZM155.174 82.9107L184.738 71.2649C218.816 92.0355 241.571 129.551 241.561 172.379C241.561 237.734 188.583 290.712 123.228 290.712C57.873 290.712 4.89493 237.734 4.89493 172.379C4.89493 129.603 27.593 92.1352 61.5951 71.3456L91.106 82.9724C54.037 96.1754 27.4981 131.573 27.4981 173.176C27.4981 222.15 64.2698 262.534 111.71 268.225V202.903C72.2933 199.881 41.8356 179.779 41.8356 155.43C41.8356 131.083 72.2968 110.98 111.71 107.958V100.937H134.285V108.121C172.756 111.643 202.218 131.484 202.218 155.43C202.218 179.377 172.756 199.218 134.285 202.74V268.28C181.952 262.801 218.968 222.312 218.968 173.176C218.968 131.507 192.338 96.0615 155.174 82.9107ZM186.902 155.43C186.902 174.317 164.254 190.045 134.285 193.466V117.395C164.254 120.816 186.902 136.544 186.902 155.43ZM57.1513 155.43C57.1513 174.722 80.7834 190.72 111.71 193.669V117.191C80.7834 120.141 57.1513 136.138 57.1513 155.43ZM123 48.4823C98.9869 48.4823 77.4851 54.1651 63.0003 63.1238L123 86.2492L182.995 63.1238C168.515 54.1651 147.013 48.4823 123 48.4823Z" fill="url(#paint0_linear_224_14)"/>
<defs>
<linearGradient id="paint0_linear_224_14" x1="246" y1="145.784" x2="2.18781e-06" y2="144.927" gradientUnits="userSpaceOnUse">
<stop stop-color="#D5D52C" stop-opacity="0"/>
<stop offset="1" stop-color="#F8F8D3"/>
</linearGradient>
</defs>
</svg>
