<svg width="496" height="228" viewBox="0 0 496 228" fill="none" xmlns="http://www.w3.org/2000/svg">
<g opacity="0.1">
<path d="M91.2567 189.276C93.1334 189.225 94.4911 189.711 95.3298 190.733C96.1686 191.756 96.6124 193.164 96.6611 194.955L96.875 202.824L102.121 202.681C102.093 200.847 102.142 199.127 102.269 197.523C102.375 195.941 102.559 194.453 102.82 193.059C103.081 191.686 103.419 190.364 103.832 189.094L106.583 189.019C106.131 190.419 105.764 191.848 105.484 193.306C105.182 194.787 104.967 196.298 104.838 197.838C104.71 199.378 104.657 200.969 104.68 202.612L107.815 202.527L107.87 204.542L90.5322 205.013L90.4774 202.998L94.284 202.894L94.0744 195.185C94.057 194.545 93.9883 193.982 93.8683 193.494C93.7276 193.029 93.525 192.639 93.2604 192.326C92.9963 192.035 92.6597 191.82 92.2505 191.682C91.8412 191.543 91.3594 191.482 90.8049 191.497C90.5703 191.503 90.3254 191.52 90.0701 191.549C89.794 191.599 89.5073 191.649 89.2099 191.7L89.2787 189.522C89.6608 189.447 90.0115 189.395 90.3308 189.365C90.6495 189.314 90.9582 189.284 91.2567 189.276Z" fill="url(#paint0_linear_240_4)"/>
<path d="M186.221 91.6298C184.484 92.5891 182.816 92.7794 181.217 92.2006C179.618 91.6217 178.354 90.492 177.425 88.8114C176.806 87.691 176.473 86.5588 176.426 85.4149C176.379 84.271 176.623 83.2226 177.157 82.2697C177.718 81.3013 178.574 80.4999 179.722 79.8655C180.618 79.3703 181.696 79.1041 182.955 79.0667C184.214 79.0293 185.498 79.4349 186.807 80.2834C186.814 78.7076 187.155 77.4046 187.829 76.3743C188.53 75.3285 189.329 74.5581 190.226 74.0629C191.962 73.1035 193.638 72.9273 195.253 73.5341C196.852 74.1129 198.108 75.2287 199.021 76.8812C199.64 78.0017 199.973 79.1338 200.02 80.2777C200.067 81.4216 199.81 82.4778 199.248 83.4461C198.714 84.3991 197.873 85.1927 196.725 85.8272C195.828 86.3223 194.751 86.5886 193.492 86.626C192.246 86.6199 190.961 86.2143 189.639 85.4093C189.645 86.9416 189.304 88.2446 188.618 89.3184C187.916 90.3641 187.117 91.1346 186.221 91.6298ZM184.982 89.1885C185.43 88.9409 185.846 88.6015 186.229 88.1704C186.625 87.6958 186.922 87.0749 187.119 86.3077C187.345 85.525 187.383 84.5351 187.234 83.3381C186.3 82.5744 185.45 82.0937 184.682 81.8961C183.928 81.655 183.252 81.5896 182.655 81.7001C182.086 81.7951 181.577 81.9664 181.129 82.2139C180.149 82.7555 179.578 83.5094 179.417 84.4757C179.256 85.4419 179.447 86.4152 179.988 87.3956C180.53 88.3759 181.252 89.0552 182.156 89.4335C183.06 89.8117 184.002 89.73 184.982 89.1885ZM195.318 83.4787C196.27 82.9526 196.827 82.2064 196.987 81.2402C197.161 80.2305 196.984 79.2494 196.458 78.2971C195.917 77.3167 195.18 76.6452 194.249 76.2824C193.345 75.9042 192.417 75.9781 191.465 76.5042C191.017 76.7518 190.587 77.0988 190.175 77.5454C189.792 77.9765 189.502 78.5757 189.304 79.3429C189.091 80.0822 189.045 81.058 189.166 82.2705C190.128 83.0187 190.986 83.5134 191.741 83.7545C192.496 83.9957 193.165 84.0827 193.75 84.0158C194.347 83.9053 194.869 83.7263 195.318 83.4787Z" fill="url(#paint1_linear_240_4)"/>
<path d="M282.076 102.945L279.776 105.94L249.809 115.127L250.978 113.604L249.884 144.877L247.584 147.872L221.796 128.073L224.524 124.52L245.845 140.889L245.027 141.955L246.158 113.051L248.068 110.563L275.699 102.003L274.88 103.069L253.559 86.7002L256.287 83.1466L282.076 102.945Z" fill="url(#paint2_linear_240_4)"/>
<path d="M401.849 176.946L402.679 179.654L398.365 180.975L402.639 194.927L401.217 195.363L405.309 190.695L407.449 192.6L402.749 197.906L400.362 198.637L395.244 181.932L391.572 183.057L390.743 180.349L401.849 176.946ZM388.229 165.757L391.158 166.466L382.205 205.406L379.276 204.696L388.229 165.757ZM373.835 171.372L374.538 173.667L370.395 182.266C369.799 183.486 369.434 184.535 369.301 185.412C369.138 186.299 369.178 187.14 369.422 187.936C369.712 188.884 370.213 189.534 370.923 189.886C371.633 190.237 372.508 190.253 373.548 189.935C374.375 189.681 375.19 189.231 375.996 188.582C376.77 187.943 377.391 187.184 377.858 186.305L379.846 188.206C379.285 189.214 378.463 190.136 377.38 190.97C376.297 191.804 375.112 192.417 373.827 192.811C372.604 193.186 371.478 193.28 370.45 193.093C369.401 192.946 368.509 192.55 367.776 191.904C367.043 191.259 366.508 190.385 366.17 189.284C365.851 188.243 365.782 187.143 365.962 185.984C366.152 184.855 366.598 183.58 367.301 182.16L370.958 174.764L371.085 175.177L361.677 178.06L360.847 175.352L373.835 171.372Z" fill="url(#paint3_linear_240_4)"/>
<path d="M73.0778 58.1736L70.8569 54.5806C67.6658 56.4779 64.8555 57.5002 62.4261 57.6476C59.9966 57.795 57.8961 57.2876 56.1244 56.1255C54.3528 54.9635 52.8612 53.4025 51.6498 51.4427C50.8422 50.1361 50.2388 48.7034 49.8394 47.1445C49.4297 45.6296 49.3731 44.0469 49.6696 42.3965C49.983 40.7733 50.7407 39.1387 51.9429 37.4927C53.145 35.8467 54.9406 34.2478 57.3295 32.6959L54.5533 28.2047L58.1872 25.9585L60.9633 30.4498C63.474 28.9731 65.7478 28.0567 67.7848 27.7004C69.8114 27.3883 71.6155 27.4769 73.1971 27.9664C74.7956 28.4832 76.1808 29.2634 77.3526 30.3072C78.5245 31.351 79.4974 32.4989 80.2714 33.751C81.4491 35.6564 82.1617 37.6612 82.409 39.7655C82.6292 41.8866 82.1387 44.0144 80.9375 46.1488C79.7363 48.2832 77.5874 50.3451 74.4908 52.3344L76.7117 55.9274L73.0778 58.1736ZM72.5727 49.2314C74.7438 47.8141 76.2672 46.3834 77.1427 44.9394C78.0182 43.4953 78.3748 42.0334 78.2126 40.5537C78.0503 39.074 77.5065 37.5856 76.5811 36.0885C75.0837 33.6659 73.2034 32.176 70.9403 31.6186C68.6772 31.0613 65.974 31.6788 62.8309 33.4712L72.5727 49.2314ZM68.9389 51.4775L59.1971 35.7173C56.1069 37.7779 54.3408 39.9418 53.8987 42.2088C53.4463 44.52 53.9436 46.846 55.3906 49.1869C56.3496 50.7384 57.4462 51.9039 58.6804 52.6834C59.9315 53.4901 61.4038 53.8027 63.0973 53.6212C64.7804 53.4837 66.7276 52.7691 68.9389 51.4775Z" fill="url(#paint4_linear_240_4)"/>
<path d="M90.9625 130.679C88.3281 130.92 86.1897 130.258 84.5474 128.694C82.905 127.131 81.9674 125.074 81.7346 122.525C81.5794 120.825 81.7796 119.264 82.3353 117.843C82.891 116.421 83.75 115.271 84.9124 114.394C86.1172 113.513 87.5907 112.993 89.3328 112.834C90.6924 112.709 92.1508 112.962 93.7078 113.591C95.2647 114.22 96.6153 115.403 97.7594 117.141C98.6123 115.221 99.7262 113.812 101.101 112.916C102.518 112.015 103.907 111.503 105.266 111.378C107.901 111.138 110.041 111.821 111.687 113.427C113.33 114.991 114.265 117.026 114.494 119.533C114.65 121.233 114.449 122.793 113.894 124.215C113.338 125.637 112.458 126.788 111.253 127.67C110.09 128.547 108.638 129.065 106.896 129.224C105.536 129.348 104.078 129.096 102.521 128.467C101.003 127.792 99.6522 126.608 98.4695 124.917C97.6552 126.79 96.5414 128.199 95.1279 129.142C93.7106 130.043 92.3222 130.555 90.9625 130.679ZM90.7582 127.035C91.438 126.973 92.1275 126.781 92.8265 126.46C93.5642 126.093 94.2592 125.494 94.9117 124.663C95.6067 123.829 96.1837 122.64 96.6427 121.099C95.9121 119.666 95.1313 118.624 94.3006 117.971C93.5084 117.272 92.7183 116.83 91.9302 116.645C91.1845 116.456 90.4718 116.393 89.792 116.455C88.3048 116.591 87.2042 117.205 86.49 118.299C85.7758 119.392 85.4866 120.683 85.6224 122.17C85.7583 123.657 86.2764 124.873 87.1768 125.819C88.0772 126.765 89.271 127.171 90.7582 127.035ZM106.437 125.603C107.882 125.471 108.961 124.858 109.675 123.765C110.428 122.625 110.738 121.333 110.606 119.888C110.471 118.401 109.931 117.186 108.988 116.244C108.088 115.298 106.915 114.891 105.471 115.023C104.791 115.085 104.08 115.278 103.339 115.603C102.64 115.924 101.964 116.5 101.311 117.331C100.655 118.119 100.076 119.286 99.5745 120.831C100.348 122.26 101.13 123.324 101.923 124.023C102.715 124.722 103.486 125.187 104.235 125.418C105.023 125.604 105.757 125.665 106.437 125.603Z" fill="url(#paint5_linear_240_4)"/>
<path d="M57.6233 150.144L59.1046 151.315L63.4876 166.362L62.7344 165.766L78.3617 166.532L79.843 167.703L69.7641 180.457L68.0066 179.068L76.3395 168.524L76.8668 168.94L62.424 168.172L61.1937 167.2L57.1076 153.326L57.6349 153.742L49.3019 164.287L47.5444 162.899L57.6233 150.144Z" fill="url(#paint6_linear_240_4)"/>
<path d="M247.59 196.576L243.694 197.327L237.78 166.66L241.677 165.909L247.59 196.576ZM260.096 194.164L256.262 194.903L250.349 164.236L254.182 163.497L260.096 194.164Z" fill="url(#paint7_linear_240_4)"/>
<path d="M186.41 38.478L209.045 33.7767L207.553 35.6722L208.288 29.7174L211.433 30.1057L210.585 36.9656L188.926 41.207L189.067 40.0637L229.506 56.8585L229.077 60.336L185.963 42.0985L186.41 38.478Z" fill="url(#paint8_linear_240_4)"/>
<path d="M456.626 47.0176L453.824 46.7418C453.539 49.2004 452.944 51.1034 452.04 52.4506C451.136 53.7979 450.017 54.7061 448.685 55.1752C447.353 55.6443 445.922 55.8037 444.394 55.6533C443.375 55.553 442.371 55.2935 441.383 54.8748C440.415 54.4794 439.553 53.8694 438.798 53.0449C438.064 52.2224 437.505 51.1598 437.118 49.8571C436.732 48.5543 436.61 46.9561 436.754 45.0624L433.251 44.7177L433.53 41.8834L437.033 42.2281C437.265 40.3002 437.699 38.7245 438.334 37.5007C438.988 36.3003 439.764 35.38 440.663 34.7396C441.584 34.1013 442.557 33.6826 443.585 33.4836C444.612 33.2845 445.613 33.233 446.59 33.3291C448.076 33.4753 449.427 33.9083 450.642 34.6281C451.856 35.3692 452.785 36.4895 453.431 37.9893C454.076 39.4891 454.3 41.4618 454.102 43.9075L456.905 44.1832L456.626 47.0176ZM451.682 43.6694C451.809 41.9455 451.666 40.5596 451.255 39.5116C450.844 38.4636 450.213 37.6835 449.363 37.1711C448.513 36.6588 447.504 36.3451 446.337 36.2302C444.447 36.0443 442.897 36.4385 441.687 37.4126C440.476 38.3868 439.71 40.0692 439.389 42.4599L451.682 43.6694ZM451.403 46.5037L439.111 45.2942C438.953 47.7654 439.386 49.5764 440.409 50.7275C441.451 51.9018 442.885 52.5788 444.711 52.7584C445.921 52.8775 446.982 52.7676 447.894 52.4286C448.828 52.0917 449.589 51.4377 450.177 50.4667C450.785 49.519 451.194 48.198 451.403 46.5037Z" fill="url(#paint9_linear_240_4)"/>
<path d="M331.359 120.047C329.49 120.221 328.103 119.825 327.199 118.86C326.294 117.894 325.759 116.519 325.593 114.735L324.862 106.897L319.637 107.384C319.786 109.213 319.85 110.931 319.828 112.54C319.826 114.126 319.741 115.623 319.572 117.032C319.401 118.419 319.151 119.76 318.822 121.055L316.082 121.31C316.442 119.884 316.714 118.434 316.898 116.959C317.101 115.462 317.216 113.941 317.244 112.396C317.271 110.85 317.219 109.259 317.088 107.621L313.966 107.913L313.779 105.905L331.048 104.296L331.235 106.303L327.443 106.656L328.159 114.335C328.218 114.972 328.324 115.53 328.476 116.009C328.647 116.464 328.874 116.839 329.159 117.134C329.442 117.408 329.792 117.6 330.209 117.711C330.627 117.822 331.111 117.852 331.664 117.801C331.897 117.779 332.141 117.746 332.393 117.701C332.666 117.632 332.948 117.563 333.242 117.493L333.316 119.671C332.94 119.771 332.593 119.846 332.277 119.897C331.962 119.969 331.656 120.019 331.359 120.047Z" fill="url(#paint10_linear_240_4)"/>
<path d="M270.861 39.8201C272.531 38.7487 274.183 38.4492 275.816 38.9217C277.45 39.3942 278.786 40.4385 279.822 42.0544C280.514 43.1317 280.92 44.2396 281.042 45.3779C281.164 46.5163 280.99 47.5784 280.52 48.5643C280.024 49.5675 279.223 50.4234 278.119 51.1319C277.257 51.6849 276.199 52.0214 274.945 52.1414C273.692 52.2615 272.384 51.9411 271.021 51.1805C271.118 52.7533 270.864 54.0759 270.259 55.1483C269.627 56.2379 268.881 57.0592 268.019 57.6121C266.349 58.6835 264.689 58.9695 263.037 58.4701C261.403 57.9976 260.077 56.9669 259.057 55.3778C258.366 54.3005 257.959 53.1927 257.837 52.0543C257.715 50.916 257.903 49.8452 258.4 48.842C258.87 47.8561 259.657 47.0089 260.761 46.3003C261.623 45.7474 262.681 45.4109 263.934 45.2908C265.178 45.215 266.486 45.5353 267.859 46.2518C267.752 44.7231 268.006 43.4005 268.621 42.284C269.252 41.1944 269.999 40.3731 270.861 39.8201ZM272.258 42.1747C271.827 42.4512 271.434 42.8171 271.08 43.2725C270.716 43.7721 270.461 44.4111 270.314 45.1897C270.14 45.9856 270.167 46.9758 270.395 48.1603C271.377 48.8611 272.257 49.2848 273.036 49.4316C273.805 49.6227 274.483 49.6434 275.072 49.494C275.633 49.3618 276.129 49.1575 276.56 48.881C277.503 48.2762 278.023 47.4864 278.12 46.5117C278.217 45.5369 277.963 44.5783 277.358 43.6356C276.753 42.693 275.988 42.0626 275.061 41.7446C274.135 41.4265 273.2 41.5699 272.258 42.1747ZM262.319 48.5513C261.404 49.1388 260.897 49.9199 260.8 50.8947C260.694 51.9136 260.934 52.8809 261.522 53.7966C262.126 54.7393 262.906 55.361 263.859 55.6618C264.785 55.9798 265.706 55.8451 266.622 55.2575C267.053 54.9811 267.459 54.6065 267.84 54.1338C268.194 53.6785 268.445 53.0615 268.592 52.2829C268.756 51.5313 268.737 50.5546 268.537 49.3527C267.528 48.6693 266.639 48.232 265.87 48.041C265.101 47.85 264.427 47.8071 263.848 47.9123C263.26 48.0618 262.75 48.2748 262.319 48.5513Z" fill="url(#paint11_linear_240_4)"/>
<path d="M346.727 85.5763L346.883 81.8035L366.094 57.0371L366.015 58.9555L348.903 32.7571L349.058 28.9843L381.542 30.3222L381.358 34.7984L354.501 33.6923L354.556 32.3494L370.274 56.6328L370.145 59.7661L352.483 82.6747L352.539 81.3319L379.396 82.438L379.212 86.9142L346.727 85.5763Z" fill="url(#paint12_linear_240_4)"/>
<path d="M114.144 53.6878L113.138 51.0404L117.356 49.4379L112.173 35.7972L113.564 35.2687L109.788 40.1951L107.528 38.4352L111.869 32.8322L114.202 31.9457L120.407 48.2787L123.997 46.9149L125.003 49.5623L114.144 53.6878ZM128.469 63.9576L125.501 63.4423L131.876 23.9988L134.844 24.5141L128.469 63.9576ZM142.463 57.4085L141.611 55.165L145.18 46.3125C145.695 45.0556 145.99 43.985 146.065 43.1008C146.17 42.2052 146.074 41.3685 145.779 40.5908C145.426 39.6634 144.884 39.0478 144.153 38.7438C143.421 38.4398 142.547 38.4811 141.53 38.8675C140.722 39.1743 139.938 39.6777 139.177 40.3776C138.445 41.0662 137.876 41.8645 137.468 42.7726L135.359 41.0064C135.853 39.9631 136.613 38.9898 137.639 38.0865C138.665 37.1832 139.806 36.4928 141.062 36.0155C142.259 35.5609 143.376 35.3932 144.414 35.5123C145.471 35.5902 146.386 35.927 147.16 36.523C147.934 37.1189 148.526 37.9553 148.935 39.0322C149.321 40.0493 149.463 41.1423 149.359 42.3113C149.244 43.4504 148.883 44.7516 148.275 46.2149L145.111 53.8353L144.958 53.4315L154.156 49.9368L155.162 52.5842L142.463 57.4085Z" fill="url(#paint13_linear_240_4)"/>
<path d="M444.122 164.547L446.574 167.986C449.634 165.883 452.371 164.678 454.785 164.372C457.2 164.065 459.329 164.433 461.173 165.476C463.018 166.519 464.609 167.979 465.946 169.855C466.838 171.106 467.534 172.496 468.035 174.025C468.543 175.51 468.704 177.085 468.516 178.752C468.31 180.392 467.662 182.073 466.57 183.794C465.479 185.516 463.792 187.229 461.511 188.934L464.576 193.234L461.097 195.714L458.032 191.415C455.624 193.053 453.415 194.117 451.406 194.606C449.404 195.051 447.598 195.081 445.988 194.696C444.359 194.286 442.926 193.598 441.688 192.634C440.45 191.669 439.403 190.588 438.549 189.389C437.248 187.565 436.406 185.612 436.021 183.528C435.662 181.426 436.011 179.271 437.07 177.062C438.128 174.853 440.137 172.655 443.096 170.466L440.644 167.027L444.122 164.547ZM445.214 173.436C443.14 174.993 441.714 176.521 440.936 178.019C440.157 179.518 439.897 181 440.156 182.466C440.415 183.932 441.056 185.381 442.078 186.814C443.731 189.133 445.705 190.496 448 190.904C450.295 191.311 452.952 190.517 455.97 188.522L445.214 173.436ZM448.692 170.956L459.448 186.042C462.397 183.783 464.017 181.508 464.309 179.217C464.608 176.881 463.959 174.593 462.362 172.352C461.303 170.867 460.132 169.776 458.849 169.079C457.548 168.356 456.058 168.141 454.38 168.433C452.71 168.681 450.814 169.522 448.692 170.956Z" fill="url(#paint14_linear_240_4)"/>
<path d="M459.644 103.864C462.257 103.451 464.434 103.971 466.176 105.423C467.917 106.876 468.988 108.866 469.388 111.395C469.654 113.081 469.557 114.651 469.096 116.106C468.635 117.561 467.853 118.765 466.751 119.717C465.607 120.675 464.171 121.291 462.443 121.564C461.094 121.778 459.622 121.621 458.027 121.096C456.432 120.571 455.007 119.479 453.751 117.82C453.026 119.792 452.007 121.27 450.695 122.256C449.339 123.247 447.988 123.85 446.639 124.063C444.026 124.476 441.846 123.936 440.097 122.441C438.356 120.989 437.289 119.019 436.895 116.533C436.629 114.847 436.726 113.276 437.187 111.821C437.648 110.366 438.451 109.159 439.595 108.201C440.697 107.249 442.112 106.636 443.84 106.363C445.189 106.15 446.661 106.306 448.256 106.831C449.815 107.405 451.24 108.498 452.532 110.108C453.221 108.184 454.24 106.706 455.588 105.672C456.944 104.68 458.295 104.077 459.644 103.864ZM460.087 107.487C459.413 107.594 458.738 107.83 458.061 108.197C457.349 108.612 456.695 109.255 456.099 110.127C455.46 111.005 454.962 112.229 454.605 113.797C455.429 115.179 456.276 116.168 457.148 116.764C457.984 117.41 458.802 117.799 459.6 117.932C460.357 118.071 461.072 118.088 461.747 117.981C463.222 117.748 464.279 117.062 464.92 115.924C465.561 114.786 465.765 113.48 465.532 112.005C465.298 110.53 464.701 109.35 463.741 108.465C462.78 107.58 461.562 107.254 460.087 107.487ZM444.536 109.946C443.104 110.173 442.067 110.855 441.426 111.993C440.75 113.18 440.525 114.49 440.751 115.923C440.985 117.398 441.603 118.574 442.605 119.453C443.566 120.337 444.763 120.667 446.196 120.44C446.87 120.333 447.566 120.094 448.285 119.721C448.962 119.355 449.598 118.736 450.194 117.864C450.798 117.034 451.299 115.832 451.698 114.257C450.832 112.882 449.981 111.872 449.145 111.226C448.309 110.581 447.509 110.168 446.746 109.986C445.947 109.853 445.211 109.84 444.536 109.946Z" fill="url(#paint15_linear_240_4)"/>
<path d="M398.759 131.598L397.204 130.527L391.842 115.801L392.632 116.346L376.989 116.608L375.434 115.537L384.653 102.148L386.498 103.419L378.876 114.488L378.322 114.107L392.784 113.925L394.076 114.814L399.064 128.39L398.511 128.008L406.133 116.939L407.978 118.209L398.759 131.598Z" fill="url(#paint16_linear_240_4)"/>
<path d="M151.271 126.183L148.983 122.941L174.5 104.932L176.788 108.173L151.271 126.183ZM158.615 136.588L156.364 133.399L181.881 115.389L184.132 118.579L158.615 136.588Z" fill="url(#paint17_linear_240_4)"/>
<path d="M328.214 186.528L305.937 192.706L307.3 190.717L306.958 196.707L303.795 196.526L304.19 189.625L325.523 183.97L325.457 185.12L284.003 171.019L284.203 167.52L328.422 182.886L328.214 186.528Z" fill="url(#paint18_linear_240_4)"/>
<path d="M155.822 177.001L158.636 177.092C158.759 174.62 159.227 172.682 160.041 171.278C160.855 169.874 161.911 168.895 163.209 168.339C164.508 167.783 165.925 167.53 167.46 167.58C168.484 167.613 169.502 167.806 170.515 168.159C171.508 168.49 172.408 169.042 173.215 169.815C174.001 170.588 174.63 171.611 175.101 172.886C175.572 174.16 175.798 175.747 175.779 177.646L179.297 177.76L179.205 180.606L175.687 180.493C175.582 182.432 175.253 184.032 174.7 185.295C174.126 186.536 173.411 187.505 172.556 188.203C171.68 188.901 170.736 189.383 169.724 189.649C168.713 189.915 167.716 190.032 166.735 190C165.243 189.952 163.867 189.609 162.606 188.97C161.347 188.311 160.346 187.254 159.603 185.8C158.861 184.346 158.508 182.392 158.544 179.938L155.73 179.847L155.822 177.001ZM160.975 180.017C160.962 181.745 161.195 183.119 161.674 184.138C162.153 185.156 162.834 185.893 163.716 186.349C164.598 186.804 165.625 187.051 166.797 187.089C168.695 187.15 170.216 186.655 171.36 185.603C172.504 184.552 173.157 182.823 173.321 180.416L160.975 180.017ZM161.067 177.17L173.413 177.57C173.407 175.093 172.856 173.315 171.76 172.233C170.643 171.13 169.168 170.549 167.334 170.489C166.119 170.45 165.067 170.63 164.179 171.028C163.27 171.425 162.553 172.128 162.03 173.135C161.486 174.121 161.165 175.466 161.067 177.17Z" fill="url(#paint19_linear_240_4)"/>
</g>
<defs>
<linearGradient id="paint0_linear_240_4" x1="84.0129" y1="222.645" x2="82.491" y2="166.666" gradientUnits="userSpaceOnUse">
<stop stop-color="#00241E"/>
<stop offset="1" stop-color="#00241E" stop-opacity="0.6"/>
</linearGradient>
<linearGradient id="paint1_linear_240_4" x1="179.57" y1="48.3631" x2="210.517" y2="104.383" gradientUnits="userSpaceOnUse">
<stop stop-color="#00241E"/>
<stop offset="1" stop-color="#00241E" stop-opacity="0.6"/>
</linearGradient>
<linearGradient id="paint2_linear_240_4" x1="216.407" y1="148.999" x2="259.833" y2="92.4343" gradientUnits="userSpaceOnUse">
<stop stop-color="#00241E"/>
<stop offset="1" stop-color="#00241E" stop-opacity="0.6"/>
</linearGradient>
<linearGradient id="paint3_linear_240_4" x1="387.733" y1="217.317" x2="372.206" y2="166.642" gradientUnits="userSpaceOnUse">
<stop stop-color="#00241E"/>
<stop offset="1" stop-color="#00241E" stop-opacity="0.6"/>
</linearGradient>
<linearGradient id="paint4_linear_240_4" x1="76.1374" y1="71.857" x2="45.116" y2="21.6706" gradientUnits="userSpaceOnUse">
<stop stop-color="#00241E"/>
<stop offset="0.685" stop-color="#00241E" stop-opacity="0.6"/>
</linearGradient>
<linearGradient id="paint5_linear_240_4" x1="98.1383" y1="74.0078" x2="103.959" y2="137.743" gradientUnits="userSpaceOnUse">
<stop stop-color="#00241E"/>
<stop offset="0.685" stop-color="#00241E" stop-opacity="0.6"/>
</linearGradient>
<linearGradient id="paint6_linear_240_4" x1="72.8265" y1="193.42" x2="17.1204" y2="149.4" gradientUnits="userSpaceOnUse">
<stop stop-color="#00241E"/>
<stop offset="0.685" stop-color="#00241E" stop-opacity="0.6"/>
</linearGradient>
<linearGradient id="paint7_linear_240_4" x1="203.408" y1="190.413" x2="264.287" y2="178.675" gradientUnits="userSpaceOnUse">
<stop stop-color="#00241E"/>
<stop offset="0.685" stop-color="#00241E" stop-opacity="0.6"/>
</linearGradient>
<linearGradient id="paint8_linear_240_4" x1="241.785" y1="52.2043" x2="178.267" y2="44.3604" gradientUnits="userSpaceOnUse">
<stop stop-color="#00241E"/>
<stop offset="0.685" stop-color="#00241E" stop-opacity="0.6"/>
</linearGradient>
<linearGradient id="paint9_linear_240_4" x1="465.262" y1="59.6519" x2="406.546" y2="53.8749" gradientUnits="userSpaceOnUse">
<stop stop-color="#00241E"/>
<stop offset="0.685" stop-color="#00241E" stop-opacity="0.6"/>
</linearGradient>
<linearGradient id="paint10_linear_240_4" x1="336.394" y1="86.2737" x2="341.591" y2="142.032" gradientUnits="userSpaceOnUse">
<stop stop-color="#00241E"/>
<stop offset="1" stop-color="#00241E" stop-opacity="0.6"/>
</linearGradient>
<linearGradient id="paint11_linear_240_4" x1="280.34" y1="82.5562" x2="245.779" y2="28.6905" gradientUnits="userSpaceOnUse">
<stop stop-color="#00241E"/>
<stop offset="1" stop-color="#00241E" stop-opacity="0.6"/>
</linearGradient>
<linearGradient id="paint12_linear_240_4" x1="373.899" y1="10.1106" x2="370.965" y2="81.3623" gradientUnits="userSpaceOnUse">
<stop stop-color="#00241E"/>
<stop offset="1" stop-color="#00241E" stop-opacity="0.6"/>
</linearGradient>
<linearGradient id="paint13_linear_240_4" x1="125.577" y1="12.4766" x2="144.4" y2="62.0215" gradientUnits="userSpaceOnUse">
<stop stop-color="#00241E"/>
<stop offset="1" stop-color="#00241E" stop-opacity="0.6"/>
</linearGradient>
<linearGradient id="paint14_linear_240_4" x1="440.17" y1="151.094" x2="474.422" y2="199.133" gradientUnits="userSpaceOnUse">
<stop stop-color="#00241E"/>
<stop offset="0.685" stop-color="#00241E" stop-opacity="0.6"/>
</linearGradient>
<linearGradient id="paint15_linear_240_4" x1="456.207" y1="160.885" x2="446.212" y2="97.6701" gradientUnits="userSpaceOnUse">
<stop stop-color="#00241E"/>
<stop offset="0.685" stop-color="#00241E" stop-opacity="0.6"/>
</linearGradient>
<linearGradient id="paint16_linear_240_4" x1="380.745" y1="89.4146" x2="439.223" y2="129.68" gradientUnits="userSpaceOnUse">
<stop stop-color="#00241E"/>
<stop offset="0.685" stop-color="#00241E" stop-opacity="0.6"/>
</linearGradient>
<linearGradient id="paint17_linear_240_4" x1="138.706" y1="83.3794" x2="174.457" y2="134.034" gradientUnits="userSpaceOnUse">
<stop stop-color="#00241E"/>
<stop offset="0.685" stop-color="#00241E" stop-opacity="0.6"/>
</linearGradient>
<linearGradient id="paint18_linear_240_4" x1="272.056" y1="176.47" x2="335.952" y2="180.123" gradientUnits="userSpaceOnUse">
<stop stop-color="#00241E"/>
<stop offset="0.685" stop-color="#00241E" stop-opacity="0.6"/>
</linearGradient>
<linearGradient id="paint19_linear_240_4" x1="146.374" y1="164.961" x2="205.343" y2="166.868" gradientUnits="userSpaceOnUse">
<stop stop-color="#00241E"/>
<stop offset="0.685" stop-color="#00241E" stop-opacity="0.6"/>
</linearGradient>
</defs>
</svg>
