<svg width="96" height="116" viewBox="0 0 96 116" fill="none" xmlns="http://www.w3.org/2000/svg">
<path fill-rule="evenodd" clip-rule="evenodd" d="M73.002 5.03771L93.5346 27.6549L95.4788 29.7979L95.3393 32.6885L92.2054 97.6154C91.7039 108.006 82.8441 116.051 72.4524 115.549L18.7459 112.957C8.35745 112.455 0.313767 103.594 0.815284 93.2041L3.26038 42.5478L0.470718 42.4132L1.55858 19.8754L4.34825 20.01L4.41782 18.5687C4.91942 8.17676 13.7789 0.13146 24.1673 0.632893L68.1654 2.75661L71.0575 2.89621L73.002 5.03771ZM19.0825 105.979L72.789 108.571C79.3446 108.888 84.9142 103.833 85.2306 97.2783L88.284 34.0196L74.9266 33.3748C69.4667 33.1113 65.2508 28.471 65.5143 23.011L66.1591 9.65194L23.8306 7.60881C17.2766 7.29246 11.7086 12.3495 11.3922 18.9051L11.3226 20.3465L45.8337 22.0122L44.7458 44.5501L10.2348 42.8843L7.78968 93.5405C7.47334 100.094 12.5284 105.662 19.0825 105.979ZM11.5359 26.0876L11.0323 36.5201C11.0234 36.7044 11.166 36.8617 11.3507 36.8706L12.9321 36.9469C13.1163 36.9558 13.2734 36.8132 13.2823 36.6289L13.4649 32.8466L14.8637 32.9141C15.4099 32.9405 15.9178 32.8783 16.3727 32.7288C16.8309 32.5794 17.2357 32.3522 17.5753 32.0548C17.9165 31.7557 18.1872 31.3947 18.3787 30.9822C18.5718 30.5698 18.6826 30.1063 18.7068 29.6057C18.7305 29.1152 18.6647 28.646 18.5141 28.2124C18.3639 27.7704 18.1295 27.3798 17.8152 27.0526C17.5039 26.7271 17.1246 26.4636 16.6879 26.2677C16.2464 26.0698 15.7471 25.9558 15.2008 25.9294L11.8864 25.7694C11.7019 25.7605 11.5448 25.9035 11.5359 26.0876ZM21.758 26.581L21.2544 37.0135C21.2456 37.1978 21.3881 37.3551 21.5725 37.3635L25.2357 37.5404C25.9353 37.5741 26.5554 37.488 27.0784 37.2845C27.6112 37.08 28.0972 36.7325 28.5255 36.2514C28.7419 36.0054 28.9204 35.7247 29.0561 35.4174C29.1865 35.1216 29.2901 34.8014 29.3636 34.465C29.4353 34.1302 29.4854 33.7683 29.5155 33.3807C29.5433 33.0096 29.5674 32.6101 29.5878 32.188C29.6083 31.7642 29.6227 31.3644 29.6308 30.9923C29.6382 30.6022 29.6232 30.2386 29.5839 29.9001C29.5432 29.5584 29.471 29.2279 29.3697 28.9206C29.2658 28.6051 29.1152 28.3087 28.9206 28.0379C28.5433 27.5229 28.0935 27.13 27.5813 26.8718C27.0754 26.6187 26.4678 26.4732 25.7717 26.4396L22.1085 26.2628C21.9242 26.2539 21.7669 26.397 21.758 26.581ZM39.3294 32.041C39.3383 31.8567 39.1957 31.6994 39.0114 31.6905L35.009 31.4975L35.1301 28.9869L39.2809 29.1873C39.4651 29.1962 39.6224 29.0534 39.6313 28.8691L39.7 27.4475C39.7088 27.2632 39.5658 27.1059 39.3818 27.097L33.3152 26.8042C33.1309 26.7953 32.9738 26.9383 32.9649 27.1224L32.4614 37.5549C32.4525 37.7392 32.5951 37.8963 32.7794 37.9051L34.3609 37.9815C34.5452 37.9904 34.7024 37.8478 34.7113 37.6635L34.9081 33.5876L38.9105 33.7808C39.0948 33.7897 39.2519 33.6469 39.2608 33.4626L39.3294 32.041ZM55.3329 79.2619C59.8097 78.6332 64.2519 78.5846 66.089 78.7843C72.4206 79.4721 73.5964 82.5016 73.6831 84.7689C73.7716 87.035 70.7482 90.5266 65.7777 89.5971C62.3426 88.9574 58.3146 85.1629 54.9087 81.8544C54.8044 81.8151 54.714 81.7894 54.6473 81.7862C54.1309 81.7612 48.8931 82.9836 44.2566 84.0657L44.2417 84.0692L44.2198 84.0743C43.6725 84.202 43.1337 84.3277 42.6124 84.4491C34.8693 96.8525 27.5903 100.149 24.4599 95.77C22.8112 93.4649 23.7422 88.2577 32.3702 84.7407C34.1021 84.0384 36.5075 83.223 39.3 82.5196C41.8572 78.3632 44.5107 72.5775 46.0065 69.1507C44.0429 64.9037 42.4957 60.4577 42.3971 58.3726C42.2032 54.2305 44.1489 50.5838 47.6851 50.7545C52.1882 50.9719 55.3252 55.4504 49.3098 70.3837C50.828 73.1616 52.8922 76.5408 55.3329 79.2619ZM27.068 94.7144C28.2075 95.5535 31.6567 93.3623 33.8375 91.0096C36.0167 88.654 37.5094 86.2683 37.5284 85.8754C37.5474 85.4825 37.3658 85.1797 36.5641 85.435C36.4955 85.4568 36.3879 85.4877 36.2471 85.5282L36.246 85.5285L36.2459 85.5285C34.9915 85.8891 31.106 87.0058 28.6146 89.1824C25.8404 91.6074 25.9271 93.8734 27.068 94.7144ZM47.0599 53.4812C44.9833 53.6751 44.3807 56.0055 44.4594 58.4704C44.5367 60.9318 45.6792 63.7405 46.3904 65.3504C46.3904 65.3504 46.7328 66.3524 47.1397 66.0779C47.4475 65.8658 47.8197 64.3588 48.4053 61.9872L48.4053 61.9872L48.4053 61.9871C48.5916 61.2328 48.7994 60.3911 49.0337 59.4757C50.0029 55.6871 49.1333 53.2839 47.0599 53.4812ZM48.3895 72.8265C48.3895 72.8265 45.295 79.854 44.132 81.5711C46.1296 80.8816 53.2714 79.6492 53.2714 79.6492C53.2714 79.6492 48.9259 73.9356 48.3895 72.8265ZM57.6123 81.4308C57.6123 81.4308 62.445 85.2103 65.3691 85.7402C68.2995 86.2757 69.4401 85.0543 69.5017 83.7779C69.5632 82.5028 68.5457 81.1744 65.5113 80.83C63.1497 80.5641 56.9402 81.1044 57.6123 81.4308ZM16.0118 30.5199C16.2893 30.2931 16.4343 29.9586 16.4565 29.497C16.4787 29.0372 16.3664 28.6903 16.1123 28.4379C15.8472 28.1766 15.4877 28.0383 15.0117 28.0154L13.7009 27.9521L13.5648 30.7707L14.8756 30.834C15.3515 30.8572 15.7228 30.7544 16.0118 30.5199ZM26.7265 34.9263C26.5253 35.1323 26.3046 35.2718 26.0522 35.3529C25.7899 35.4383 25.4892 35.4728 25.1601 35.4567L23.5885 35.3808L23.924 28.4308L25.4956 28.5067C25.8264 28.5226 26.1207 28.5859 26.3752 28.6978C26.612 28.7994 26.8248 28.9629 27.0051 29.1875C27.1995 29.4274 27.3138 29.7662 27.3439 30.1956C27.3776 30.681 27.3747 31.315 27.3378 32.0796C27.301 32.8426 27.2428 33.4737 27.1624 33.9554C27.0912 34.3785 26.9448 34.7048 26.7265 34.9263Z" fill="url(#paint0_linear_227_4)"/>
<defs>
<linearGradient id="paint0_linear_227_4" x1="94.1385" y1="57.5661" x2="1.93626" y2="43.6416" gradientUnits="userSpaceOnUse">
<stop stop-color="#D5D52C" stop-opacity="0"/>
<stop offset="1" stop-color="#D5D52C"/>
</linearGradient>
</defs>
</svg>
