<svg width="381" height="386" viewBox="0 0 381 386" fill="none" xmlns="http://www.w3.org/2000/svg">
<path d="M380.091 162.614C382.841 150.409 375.179 138.274 362.963 135.521L325.222 127.016C337.166 119.579 346.257 108.361 349.763 92.8069C354.077 73.6597 347.769 50.3644 316.892 43.4065C276.265 34.2513 232.578 69.8616 211.162 90.5104C200.662 62.6695 175.443 11.5316 134.816 2.37651C103.94 -4.5814 88.2514 13.7454 83.9367 32.8926C80.4316 48.447 84.0071 62.5302 91.7978 74.4037L53.4149 65.7543C41.1991 63.0015 29.0728 70.6772 26.3225 82.8819L11.4102 149.057L33.7192 154.084L1.29132 297.987C-1.46145 310.203 6.20315 322.327 18.4189 325.08L283.628 384.843C295.844 387.596 307.968 379.931 310.721 367.716L343.151 223.802L365.173 228.764L380.085 162.589L380.091 162.614ZM311.905 65.5386C325.569 68.6177 330.375 75.7414 327.648 87.8466C322.115 112.4 291.722 119.479 265.942 113.67L228.51 105.234C249.478 85.4373 284.411 59.343 311.905 65.5386ZM129.84 24.5111C157.334 30.7067 178.748 69.4986 189.201 96.3647L151.769 87.9295C125.988 82.12 100.606 62.1236 106.141 37.5594C108.869 25.4542 116.165 21.4295 129.84 24.5111ZM348.048 201.708L204.334 169.322L214.263 125.257L357.978 157.642L348.048 201.708ZM48.4411 87.8778L192.156 120.263L182.226 164.329L38.5112 131.943L48.4411 87.8778ZM55.8353 159.091L177.241 186.45L144.811 330.364L23.4049 303.005L55.8353 159.091ZM288.614 362.769L166.921 335.346L199.349 191.443L321.042 218.866L288.614 362.769Z" fill="url(#paint0_linear_231_82)"/>
<defs>
<linearGradient id="paint0_linear_231_82" x1="373.254" y1="192.952" x2="3.90359" y2="173.995" gradientUnits="userSpaceOnUse">
<stop stop-color="#D5D52C"/>
<stop offset="1" stop-color="#D5D52C" stop-opacity="0"/>
</linearGradient>
</defs>
</svg>
