<svg width="60" height="61" viewBox="0 0 60 61" fill="none" xmlns="http://www.w3.org/2000/svg">
<path d="M46.6881 28.1099C46.3886 27.9851 46.083 27.8638 45.7733 27.7496C45.2359 19.1235 39.8168 14.1843 30.7158 14.1343C25.4649 14.104 20.7637 15.9662 17.8347 19.8316L22.8395 22.8176C24.9214 20.0706 28.1888 19.4856 30.5948 19.4856H30.6769C33.6736 19.5016 35.936 20.2597 37.3985 21.7366C38.463 22.814 39.1768 24.2999 39.5296 26.1764C36.8713 25.7839 33.9997 25.6626 30.9271 25.816C22.2754 26.2495 16.7127 30.6375 17.086 36.7343C17.2747 39.8291 19.0469 42.4887 22.0744 44.2278C24.6342 45.6976 27.9324 46.4165 31.3579 46.2523C35.8847 46.0383 39.4332 44.5364 41.911 41.7912C43.7919 39.706 44.9815 37.0037 45.5066 33.6003C47.6624 34.7312 49.2602 36.2206 50.1443 38.0115C51.6436 41.0545 51.7318 46.0561 47.0388 50.1338C42.9283 53.7066 37.9851 55.2513 30.5169 55.2995C22.2303 55.246 15.964 52.9342 11.8905 48.4303C8.07535 44.2135 6.1042 38.1221 6.03036 30.3253C6.1042 22.5286 8.07535 16.4372 11.8905 12.2204C15.964 7.71645 22.2303 5.40473 30.5169 5.35122C38.8609 5.40473 45.2359 7.72715 49.4674 12.2525C51.5411 14.4715 53.1041 17.263 54.1358 20.5166L60 19.1556C58.7509 15.1511 56.7859 11.6995 54.1091 8.83664C48.6859 3.03414 40.7562 0.0624309 30.5374 0H30.4964C20.2981 0.0624309 12.4545 3.04663 7.1872 8.87053C2.49829 14.0523 0.0799945 21.264 0 30.3039V30.3467C0.0799945 39.3867 2.49829 46.5984 7.1872 51.7801C12.4545 57.6041 20.2981 60.59 30.4964 60.6507H30.5374C39.6034 60.5954 45.9948 58.5316 51.2601 53.9563C58.1478 47.9719 57.9407 40.4712 55.67 35.8656C54.0414 32.5639 50.936 29.8812 46.6881 28.1099ZM31.0338 40.91C27.2433 41.0956 23.303 39.6151 23.1082 36.4453C22.9646 34.0944 25.0321 31.4705 31.2676 31.1583C31.9814 31.1227 32.6829 31.1048 33.37 31.1048C35.6345 31.1048 37.7533 31.2957 39.6793 31.6631C38.9614 39.4652 34.7484 40.7317 31.0338 40.91Z" fill="#E1EBEB"/>
</svg>
