<svg width="333" height="99" viewBox="0 0 333 99" fill="none" xmlns="http://www.w3.org/2000/svg">
<mask id="mask0_30_290" style="mask-type:luminance" maskUnits="userSpaceOnUse" x="0" y="0" width="333" height="99">
<path d="M0 0.00050354H333V99H0V0.00050354Z" fill="white"/>
</mask>
<g mask="url(#mask0_30_290)">
<path d="M320.667 98.9995H12.3333C5.55 98.9995 0 93.4308 0 86.6246V12.3749C0 5.56873 5.55 1.52588e-05 12.3333 1.52588e-05H320.667C327.45 1.52588e-05 333 5.56873 333 12.3749V86.6246C333 93.4308 327.45 98.9995 320.667 98.9995Z" fill="black"/>
<path d="M320.667 0.00050354H12.3333C5.55 0.00050354 0 5.56922 0 12.3754V86.6251C0 93.4313 5.55 99 12.3333 99H320.667C327.45 99 333 93.4313 333 86.6251V12.3754C333 5.56922 327.45 0.00050354 320.667 0.00050354ZM320.667 1.98049C326.379 1.98049 331.027 6.64336 331.027 12.3754V86.6251C331.027 92.3571 326.379 97.02 320.667 97.02H12.3333C6.62053 97.02 1.97334 92.3571 1.97334 86.6251V12.3754C1.97334 6.64336 6.62053 1.98049 12.3333 1.98049H320.667Z" fill="#A6A6A6"/>
<path d="M263.775 74.2503H268.378V43.3105H263.775V74.2503ZM305.233 54.4554L299.956 67.8698H299.799L294.323 54.4554H289.365L297.576 73.2034L292.894 83.633H297.694L310.351 54.4554H305.233ZM279.13 70.7358C277.621 70.7358 275.519 69.9785 275.519 68.1074C275.519 65.719 278.136 64.8058 280.398 64.8058C282.421 64.8058 283.373 65.2439 284.604 65.8403C284.246 68.7064 281.787 70.7358 279.13 70.7358ZM279.685 53.7797C276.353 53.7797 272.9 55.2523 271.471 58.5144L275.559 60.227C276.432 58.5144 278.057 57.9575 279.764 57.9575C282.145 57.9575 284.564 59.3905 284.604 61.9373V62.2565C283.77 61.7789 281.984 61.0636 279.804 61.0636C275.401 61.0636 270.916 63.4916 270.916 68.0282C270.916 72.1689 274.528 74.8344 278.573 74.8344C281.669 74.8344 283.373 73.4435 284.446 71.81H284.604V74.1984H289.046V62.3357C289.046 56.8437 284.962 53.7797 279.685 53.7797ZM251.24 58.2223H244.693V47.6145H251.24C254.681 47.6145 256.634 50.4756 256.634 52.9184C256.634 55.3167 254.681 58.2223 251.24 58.2223ZM251.121 43.3105H240.093V74.2503H244.693V62.5288H251.121C256.222 62.5288 261.237 58.8213 261.237 52.9184C261.237 47.0156 256.222 43.3105 251.121 43.3105ZM190.982 70.7408C187.802 70.7408 185.14 68.0703 185.14 64.4024C185.14 60.6948 187.802 57.9822 190.982 57.9822C194.122 57.9822 196.583 60.6948 196.583 64.4024C196.583 68.0703 194.122 70.7408 190.982 70.7408ZM196.265 56.1879H196.107C195.074 54.9529 193.088 53.8342 190.584 53.8342C185.338 53.8342 180.53 58.4599 180.53 64.4024C180.53 70.3027 185.338 74.8889 190.584 74.8889C193.088 74.8889 195.074 73.7727 196.107 72.4956H196.265V74.0103C196.265 78.0395 194.122 80.1903 190.663 80.1903C187.841 80.1903 186.093 78.1583 185.377 76.4432L181.364 78.1187C182.516 80.9105 185.577 84.3384 190.663 84.3384C196.068 84.3384 200.639 81.1481 200.639 73.3742V54.4727H196.265V56.1879ZM203.816 74.2503H208.426V43.308H203.816V74.2503ZM215.221 64.0435C215.103 59.9746 218.362 57.903 220.705 57.903C222.535 57.903 224.084 58.8188 224.6 60.1355L215.221 64.0435ZM229.528 60.5339C228.652 58.1802 225.991 53.8342 220.547 53.8342C215.143 53.8342 210.653 58.101 210.653 64.3628C210.653 70.2631 215.103 74.8889 221.063 74.8889C225.873 74.8889 228.652 71.9387 229.807 70.2235L226.23 67.8302C225.036 69.585 223.408 70.7408 221.063 70.7408C218.719 70.7408 217.049 69.6642 215.976 67.553L230.004 61.7294L229.528 60.5339ZM117.768 57.0665V61.5314H128.417C128.099 64.0435 127.265 65.8774 125.995 67.1521C124.443 68.7088 122.018 70.4215 117.768 70.4215C111.21 70.4215 106.084 65.1201 106.084 58.5391C106.084 51.9606 111.21 46.6592 117.768 46.6592C121.306 46.6592 123.888 48.0526 125.795 49.847L128.935 46.6988C126.271 44.1471 122.736 42.1918 117.768 42.1918C108.787 42.1918 101.237 49.5302 101.237 58.5391C101.237 67.553 108.787 74.8889 117.768 74.8889C122.615 74.8889 126.271 73.2925 129.132 70.3027C132.073 67.3525 132.988 63.2069 132.988 59.8558C132.988 58.8188 132.909 57.8634 132.748 57.0665H117.768ZM145.094 70.7408C141.917 70.7408 139.174 68.1099 139.174 64.3628C139.174 60.5735 141.917 57.9822 145.094 57.9822C148.274 57.9822 151.017 60.5735 151.017 64.3628C151.017 68.1099 148.274 70.7408 145.094 70.7408ZM145.094 53.8342C139.293 53.8342 134.564 58.2619 134.564 64.3628C134.564 70.4215 139.293 74.8889 145.094 74.8889C150.896 74.8889 155.627 70.4215 155.627 64.3628C155.627 58.2619 150.896 53.8342 145.094 53.8342ZM168.069 70.7408C164.889 70.7408 162.146 68.1099 162.146 64.3628C162.146 60.5735 164.889 57.9822 168.069 57.9822C171.248 57.9822 173.989 60.5735 173.989 64.3628C173.989 68.1099 171.248 70.7408 168.069 70.7408ZM168.069 53.8342C162.267 53.8342 157.538 58.2619 157.538 64.3628C157.538 70.4215 162.267 74.8889 168.069 74.8889C173.87 74.8889 178.599 70.4215 178.599 64.3628C178.599 58.2619 173.87 53.8342 168.069 53.8342Z" fill="white"/>
<path d="M51.1024 48.0746L24.8398 76.042C24.8423 76.047 24.8423 76.0544 24.8448 76.0593C25.6514 79.0961 28.414 81.3311 31.6947 81.3311C33.007 81.3311 34.2378 80.9747 35.2936 80.351L35.3774 80.3015L64.938 63.1869L51.1024 48.0746Z" fill="#EA4335"/>
<path d="M77.6708 43.3124L77.6461 43.2951L64.8836 35.8726L50.5054 48.7104L64.9354 63.1841L77.6288 55.8358C79.8538 54.628 81.3658 52.2743 81.3658 49.5618C81.3658 46.864 79.876 44.5227 77.6708 43.3124Z" fill="#FBBC04"/>
<path d="M24.8394 22.9609C24.6815 23.545 24.5977 24.1588 24.5977 24.7924V74.213C24.5977 74.8466 24.6815 75.4604 24.8419 76.042L52.0048 48.7899L24.8394 22.9609Z" fill="#4285F4"/>
<path d="M51.2963 49.5024L64.8877 35.8677L35.3617 18.6913C34.2887 18.0453 33.0356 17.6741 31.6962 17.6741C28.4155 17.6741 25.6479 19.914 24.8413 22.9532L24.8389 22.9607L51.2963 49.5024Z" fill="#34A853"/>
</g>
<path d="M108.036 31.3916H103.22V15.7317H108.249C109.763 15.7317 111.059 16.0452 112.136 16.6722C113.213 17.2941 114.039 18.1887 114.613 19.3561C115.187 20.5184 115.474 21.91 115.474 23.5311C115.474 25.1623 115.184 26.5667 114.605 27.7442C114.026 28.9167 113.183 29.819 112.075 30.4511C110.967 31.0781 109.621 31.3916 108.036 31.3916ZM105.11 29.7094H107.914C109.205 29.7094 110.274 29.4596 111.122 28.96C111.971 28.4605 112.603 27.7493 113.02 26.8267C113.437 25.904 113.645 24.8055 113.645 23.5311C113.645 22.2668 113.439 21.1785 113.028 20.266C112.616 19.3484 112.001 18.645 111.183 18.1556C110.365 17.6611 109.347 17.4139 108.127 17.4139H105.11V29.7094Z" fill="white"/>
<path d="M120.534 15.7317V31.3916H118.644V15.7317H120.534Z" fill="white"/>
<path d="M132.859 19.6467C132.767 18.8718 132.396 18.2703 131.746 17.8421C131.096 17.4139 130.298 17.1998 129.353 17.1998C128.662 17.1998 128.058 17.3119 127.539 17.5362C127.026 17.7605 126.625 18.0689 126.335 18.4615C126.051 18.854 125.909 19.3 125.909 19.7996C125.909 20.2176 126.008 20.577 126.206 20.8777C126.409 21.1734 126.668 21.4206 126.983 21.6194C127.298 21.8132 127.628 21.9737 127.974 22.1012C128.319 22.2235 128.637 22.3229 128.926 22.3994L130.511 22.8276C130.918 22.9346 131.37 23.0825 131.868 23.2711C132.371 23.4597 132.851 23.7171 133.308 24.0434C133.771 24.3645 134.152 24.7774 134.451 25.2821C134.751 25.7868 134.901 26.4061 134.901 27.1402C134.901 27.9864 134.68 28.751 134.238 29.4341C133.801 30.1172 133.161 30.6601 132.318 31.0628C131.479 31.4655 130.461 31.6669 129.262 31.6669C128.144 31.6669 127.176 31.4859 126.358 31.124C125.545 30.762 124.905 30.2574 124.438 29.61C123.975 28.9626 123.714 28.2107 123.653 27.3543H125.604C125.655 27.9456 125.853 28.435 126.198 28.8224C126.549 29.2047 126.991 29.4902 127.524 29.6788C128.063 29.8623 128.642 29.9541 129.262 29.9541C129.983 29.9541 130.631 29.8368 131.205 29.6023C131.779 29.3627 132.234 29.0314 132.569 28.6083C132.904 28.1801 133.072 27.6805 133.072 27.1096C133.072 26.5896 132.927 26.1665 132.638 25.8403C132.348 25.514 131.967 25.249 131.495 25.045C131.022 24.8411 130.511 24.6627 129.963 24.5098L128.042 23.9593C126.823 23.6075 125.858 23.1054 125.146 22.4529C124.435 21.8004 124.08 20.9466 124.08 19.8913C124.08 19.0146 124.316 18.2499 124.788 17.5974C125.266 16.9398 125.906 16.4301 126.709 16.0681C127.517 15.7011 128.418 15.5176 129.414 15.5176C130.42 15.5176 131.314 15.6985 132.097 16.0605C132.879 16.4173 133.499 16.9067 133.956 17.5286C134.418 18.1505 134.662 18.8565 134.688 19.6467H132.859Z" fill="white"/>
<path d="M138.008 31.3916V15.7317H143.282C144.506 15.7317 145.507 15.9534 146.285 16.3969C147.067 16.8353 147.646 17.4292 148.022 18.1785C148.398 18.9279 148.586 19.7639 148.586 20.6866C148.586 21.6092 148.398 22.4478 148.022 23.2023C147.651 23.9567 147.077 24.5582 146.3 25.0068C145.522 25.4503 144.527 25.6721 143.312 25.6721H139.533V23.9898H143.251C144.09 23.9898 144.763 23.8446 145.271 23.554C145.779 23.2634 146.147 22.8709 146.376 22.3764C146.61 21.8769 146.727 21.3136 146.727 20.6866C146.727 20.0596 146.61 19.4988 146.376 19.0044C146.147 18.5099 145.776 18.1225 145.263 17.8421C144.75 17.5566 144.069 17.4139 143.221 17.4139H139.898V31.3916H138.008Z" fill="white"/>
<path d="M164.799 23.5616C164.799 25.2133 164.502 26.6406 163.907 27.8436C163.313 29.0467 162.498 29.9745 161.461 30.627C160.425 31.2795 159.241 31.6057 157.91 31.6057C156.579 31.6057 155.395 31.2795 154.359 30.627C153.322 29.9745 152.507 29.0467 151.912 27.8436C151.318 26.6406 151.021 25.2133 151.021 23.5616C151.021 21.91 151.318 20.4827 151.912 19.2796C152.507 18.0766 153.322 17.1488 154.359 16.4963C155.395 15.8438 156.579 15.5176 157.91 15.5176C159.241 15.5176 160.425 15.8438 161.461 16.4963C162.498 17.1488 163.313 18.0766 163.907 19.2796C164.502 20.4827 164.799 21.91 164.799 23.5616ZM162.97 23.5616C162.97 22.2057 162.744 21.0613 162.292 20.1284C161.845 19.1955 161.238 18.4895 160.471 18.0103C159.708 17.5311 158.855 17.2916 157.91 17.2916C156.965 17.2916 156.109 17.5311 155.342 18.0103C154.58 18.4895 153.973 19.1955 153.52 20.1284C153.073 21.0613 152.85 22.2057 152.85 23.5616C152.85 24.9176 153.073 26.062 153.52 26.9949C153.973 27.9278 154.58 28.6338 155.342 29.113C156.109 29.5921 156.965 29.8317 157.91 29.8317C158.855 29.8317 159.708 29.5921 160.471 29.113C161.238 28.6338 161.845 27.9278 162.292 26.9949C162.744 26.062 162.97 24.9176 162.97 23.5616Z" fill="white"/>
<path d="M180.353 15.7317V31.3916H178.524L170.019 19.0961H169.867V31.3916H167.977V15.7317H169.806L178.341 28.0578H178.494V15.7317H180.353Z" fill="white"/>
<path d="M186.025 15.7317V31.3916H184.135V15.7317H186.025Z" fill="white"/>
<path d="M189.814 31.3916V15.7317H195.271C196.358 15.7317 197.255 15.9203 197.961 16.2975C198.667 16.6696 199.193 17.1718 199.538 17.8039C199.884 18.4309 200.056 19.1267 200.056 19.8913C200.056 20.5642 199.937 21.1199 199.698 21.5583C199.465 21.9967 199.155 22.3433 198.769 22.5982C198.388 22.8531 197.973 23.0417 197.526 23.164V23.317C198.004 23.3475 198.484 23.5158 198.967 23.8216C199.449 24.1275 199.853 24.5659 200.178 25.1368C200.504 25.7077 200.666 26.4061 200.666 27.2319C200.666 28.017 200.488 28.723 200.133 29.35C199.777 29.977 199.216 30.474 198.448 30.8411C197.681 31.2081 196.683 31.3916 195.454 31.3916H189.814ZM191.704 29.7094H195.454C196.688 29.7094 197.564 29.4698 198.083 28.9906C198.606 28.5063 198.868 27.9201 198.868 27.2319C198.868 26.7018 198.733 26.2124 198.464 25.7638C198.194 25.3101 197.811 24.9482 197.313 24.678C196.815 24.4027 196.226 24.2651 195.545 24.2651H191.704V29.7094ZM191.704 22.6135H195.21C195.779 22.6135 196.292 22.5013 196.749 22.277C197.211 22.0527 197.577 21.7367 197.846 21.3289C198.121 20.9211 198.258 20.4419 198.258 19.8913C198.258 19.2032 198.019 18.6195 197.542 18.1403C197.064 17.656 196.307 17.4139 195.271 17.4139H191.704V22.6135Z" fill="white"/>
<path d="M203.772 31.3916V15.7317H205.661V29.7094H212.916V31.3916H203.772Z" fill="white"/>
<path d="M215.843 31.3916V15.7317H225.262V17.4139H217.733V22.7052H224.774V24.3875H217.733V29.7094H225.384V31.3916H215.843Z" fill="white"/>
<path d="M243.239 19.6467C243.148 18.8718 242.777 18.2703 242.127 17.8421C241.476 17.4139 240.679 17.1998 239.734 17.1998C239.043 17.1998 238.438 17.3119 237.92 17.5362C237.407 17.7605 237.006 18.0689 236.716 18.4615C236.432 18.854 236.289 19.3 236.289 19.7996C236.289 20.2176 236.388 20.577 236.586 20.8777C236.79 21.1734 237.049 21.4206 237.364 21.6194C237.679 21.8132 238.009 21.9737 238.354 22.1012C238.7 22.2235 239.017 22.3229 239.307 22.3994L240.892 22.8276C241.299 22.9346 241.751 23.0825 242.249 23.2711C242.752 23.4597 243.232 23.7171 243.689 24.0434C244.151 24.3645 244.532 24.7774 244.832 25.2821C245.132 25.7868 245.282 26.4061 245.282 27.1402C245.282 27.9864 245.061 28.751 244.619 29.4341C244.182 30.1172 243.542 30.6601 242.698 31.0628C241.86 31.4655 240.841 31.6669 239.642 31.6669C238.525 31.6669 237.557 31.4859 236.739 31.124C235.926 30.762 235.286 30.2574 234.818 29.61C234.356 28.9626 234.094 28.2107 234.034 27.3543H235.984C236.035 27.9456 236.233 28.435 236.579 28.8224C236.929 29.2047 237.371 29.4902 237.905 29.6788C238.443 29.8623 239.023 29.9541 239.642 29.9541C240.364 29.9541 241.012 29.8368 241.586 29.6023C242.16 29.3627 242.614 29.0314 242.95 28.6083C243.285 28.1801 243.453 27.6805 243.453 27.1096C243.453 26.5896 243.308 26.1665 243.018 25.8403C242.729 25.514 242.348 25.249 241.875 25.045C241.403 24.8411 240.892 24.6627 240.343 24.5098L238.423 23.9593C237.204 23.6075 236.238 23.1054 235.527 22.4529C234.816 21.8004 234.46 20.9466 234.46 19.8913C234.46 19.0146 234.697 18.2499 235.169 17.5974C235.647 16.9398 236.287 16.4301 237.089 16.0681C237.897 15.7011 238.799 15.5176 239.795 15.5176C240.801 15.5176 241.695 15.6985 242.477 16.0605C243.26 16.4173 243.88 16.9067 244.337 17.5286C244.799 18.1505 245.043 18.8565 245.068 19.6467H243.239Z" fill="white"/>
<path d="M258.631 15.7317H260.521V26.1003C260.521 27.1708 260.27 28.1266 259.767 28.9677C259.269 29.8037 258.565 30.4638 257.656 30.9481C256.746 31.4273 255.68 31.6669 254.455 31.6669C253.231 31.6669 252.164 31.4273 251.254 30.9481C250.345 30.4638 249.639 29.8037 249.136 28.9677C248.638 28.1266 248.389 27.1708 248.389 26.1003V15.7317H250.279V25.9473C250.279 26.712 250.447 27.3925 250.782 27.9889C251.117 28.5803 251.595 29.0467 252.215 29.3882C252.84 29.7247 253.586 29.8929 254.455 29.8929C255.324 29.8929 256.071 29.7247 256.696 29.3882C257.321 29.0467 257.798 28.5803 258.128 27.9889C258.464 27.3925 258.631 26.712 258.631 25.9473V15.7317Z" fill="white"/>
<path d="M264.295 31.3916V15.7317H269.569C270.788 15.7317 271.789 15.9407 272.572 16.3587C273.354 16.7716 273.933 17.34 274.309 18.0638C274.685 18.7877 274.873 19.611 274.873 20.5336C274.873 21.4563 274.685 22.2745 274.309 22.9882C273.933 23.7018 273.357 24.2626 272.579 24.6704C271.802 25.0731 270.809 25.2744 269.599 25.2744H265.332V23.5616H269.539C270.372 23.5616 271.042 23.4393 271.55 23.1946C272.064 22.9499 272.434 22.6033 272.663 22.1547C272.897 21.701 273.014 21.1607 273.014 20.5336C273.014 19.9066 272.897 19.3586 272.663 18.8897C272.429 18.4207 272.056 18.0587 271.543 17.8039C271.03 17.5439 270.351 17.4139 269.508 17.4139H266.185V31.3916H264.295ZM271.642 24.3569L275.483 31.3916H273.288L269.508 24.3569H271.642Z" fill="white"/>
</svg>
